<?xml version="1.0" standalone="no"?>
 <!DOCTYPE svg PUBLIC "-//W3C//DTD SVG 1.1//EN" 
 "http://www.w3.org/Graphics/SVG/1.1/DTD/svg11.dtd"> 
<svg
  xmlns:svg="http://www.w3.org/2000/svg"
  xmlns="http://www.w3.org/2000/svg"
  xmlns:xlink="http://www.w3.org/1999/xlink"
  version="1.1"
  width="60.0456mm" height="75.0316mm" viewBox="0.0000 0.0000 60.0456 75.0316">
<title>SVG Image created as stmbt_proj-F_Silkscreen.svg date 2024/10/25 19:51:45 </title>
  <desc>Image generated by PCBNEW </desc>
<g style="fill:#000000; fill-opacity:1.0000;stroke:#000000; stroke-opacity:1.0000;
stroke-linecap:round; stroke-linejoin:round;"
 transform="translate(0 0) scale(1 1)">
</g>
<g style="fill:none; 
stroke:#000000; stroke-width:0.2540; stroke-opacity:1; 
stroke-linecap:round; stroke-linejoin:round;">
<g transform="rotate(-270.000000 44.0000 35.0400)">
<text x="44.0000" y="35.0400"
textLength="15.3144" font-size="2.6667" lengthAdjust="spacingAndGlyphs"
text-anchor="start" opacity="0" stroke-opacity="0">arpiku.xyz</text>
</g>
<g class="stroked-text"><desc>arpiku.xyz</desc>
<path d="M44.2580 36.5404
L45.3056 36.5404
" />
<path d="M45.3056 36.5404
L45.4961 36.4452
" />
<path d="M45.4961 36.4452
L45.5913 36.2547
" />
<path d="M45.5913 36.2547
L45.5913 35.8738
" />
<path d="M45.5913 35.8738
L45.4961 35.6833
" />
<path d="M44.3532 36.5404
L44.2580 36.3500
" />
<path d="M44.2580 36.3500
L44.2580 35.8738
" />
<path d="M44.2580 35.8738
L44.3532 35.6833
" />
<path d="M44.3532 35.6833
L44.5437 35.5881
" />
<path d="M44.5437 35.5881
L44.7342 35.5881
" />
<path d="M44.7342 35.5881
L44.9246 35.6833
" />
<path d="M44.9246 35.6833
L45.0199 35.8738
" />
<path d="M45.0199 35.8738
L45.0199 36.3500
" />
<path d="M45.0199 36.3500
L45.1151 36.5404
" />
<path d="M44.2580 37.4928
L45.5913 37.4928
" />
<path d="M45.2103 37.4928
L45.4008 37.5881
" />
<path d="M45.4008 37.5881
L45.4961 37.6833
" />
<path d="M45.4961 37.6833
L45.5913 37.8738
" />
<path d="M45.5913 37.8738
L45.5913 38.0642
" />
<path d="M45.5913 38.7309
L43.5913 38.7309
" />
<path d="M45.4961 38.7309
L45.5913 38.9214
" />
<path d="M45.5913 38.9214
L45.5913 39.3023
" />
<path d="M45.5913 39.3023
L45.4961 39.4928
" />
<path d="M45.4961 39.4928
L45.4008 39.5881
" />
<path d="M45.4008 39.5881
L45.2103 39.6833
" />
<path d="M45.2103 39.6833
L44.6389 39.6833
" />
<path d="M44.6389 39.6833
L44.4484 39.5881
" />
<path d="M44.4484 39.5881
L44.3532 39.4928
" />
<path d="M44.3532 39.4928
L44.2580 39.3023
" />
<path d="M44.2580 39.3023
L44.2580 38.9214
" />
<path d="M44.2580 38.9214
L44.3532 38.7309
" />
<path d="M44.2580 40.5404
L45.5913 40.5404
" />
<path d="M46.2580 40.5404
L46.1627 40.4452
" />
<path d="M46.1627 40.4452
L46.0675 40.5404
" />
<path d="M46.0675 40.5404
L46.1627 40.6357
" />
<path d="M46.1627 40.6357
L46.2580 40.5404
" />
<path d="M46.2580 40.5404
L46.0675 40.5404
" />
<path d="M44.2580 41.4928
L46.2580 41.4928
" />
<path d="M45.0199 41.6833
L44.2580 42.2547
" />
<path d="M45.5913 42.2547
L44.8294 41.4928
" />
<path d="M45.5913 43.9690
L44.2580 43.9690
" />
<path d="M45.5913 43.1119
L44.5437 43.1119
" />
<path d="M44.5437 43.1119
L44.3532 43.2071
" />
<path d="M44.3532 43.2071
L44.2580 43.3976
" />
<path d="M44.2580 43.3976
L44.2580 43.6833
" />
<path d="M44.2580 43.6833
L44.3532 43.8738
" />
<path d="M44.3532 43.8738
L44.4484 43.9690
" />
<path d="M44.4484 44.9214
L44.3532 45.0166
" />
<path d="M44.3532 45.0166
L44.2580 44.9214
" />
<path d="M44.2580 44.9214
L44.3532 44.8262
" />
<path d="M44.3532 44.8262
L44.4484 44.9214
" />
<path d="M44.4484 44.9214
L44.2580 44.9214
" />
<path d="M44.2580 45.6833
L45.5913 46.7309
" />
<path d="M45.5913 45.6833
L44.2580 46.7309
" />
<path d="M45.5913 47.3023
L44.2580 47.7785
" />
<path d="M45.5913 48.2547
L44.2580 47.7785
" />
<path d="M44.2580 47.7785
L43.7818 47.5881
" />
<path d="M43.7818 47.5881
L43.6865 47.4928
" />
<path d="M43.6865 47.4928
L43.5913 47.3023
" />
<path d="M45.5913 48.8262
L45.5913 49.8738
" />
<path d="M45.5913 49.8738
L44.2580 48.8262
" />
<path d="M44.2580 48.8262
L44.2580 49.8738
" />
</g></g>
<g style="fill:none; 
stroke:#000000; stroke-width:0.1500; stroke-opacity:1; 
stroke-linecap:round; stroke-linejoin:round;">
<g transform="rotate(-90.000000 24.2950 50.1650)">
<text x="24.2950" y="50.6650"
textLength="2.2024" font-size="1.3333" lengthAdjust="spacingAndGlyphs"
text-anchor="middle" opacity="0" stroke-opacity="0">R7</text>
</g>
<g class="stroked-text"><desc>R7</desc>
<path d="M24.7498 50.3317
L24.2736 50.6650
" />
<path d="M24.7498 50.9031
L23.7498 50.9031
" />
<path d="M23.7498 50.9031
L23.7498 50.5221
" />
<path d="M23.7498 50.5221
L23.7974 50.4269
" />
<path d="M23.7974 50.4269
L23.8451 50.3793
" />
<path d="M23.8451 50.3793
L23.9403 50.3317
" />
<path d="M23.9403 50.3317
L24.0832 50.3317
" />
<path d="M24.0832 50.3317
L24.1784 50.3793
" />
<path d="M24.1784 50.3793
L24.2260 50.4269
" />
<path d="M24.2260 50.4269
L24.2736 50.5221
" />
<path d="M24.2736 50.5221
L24.2736 50.9031
" />
<path d="M23.7498 49.9983
L23.7498 49.3317
" />
<path d="M23.7498 49.3317
L24.7498 49.7602
" />
</g></g>
<g style="fill:none; 
stroke:#000000; stroke-width:0.4000; stroke-opacity:1; 
stroke-linecap:round; stroke-linejoin:round;">
<g transform="rotate(-45.000000 46.1000 11.1150)">
<text x="46.1000" y="12.1150"
textLength="8.2286" font-size="2.6667" lengthAdjust="spacingAndGlyphs"
text-anchor="middle" opacity="0" stroke-opacity="0">---</text>
</g>
<g class="stroked-text"><desc>---</desc>
<path d="M43.9111 13.5055
L44.9886 12.4280
" />
<path d="M45.6620 11.7545
L46.7395 10.6770
" />
<path d="M47.4130 10.0036
L48.4905 8.9261
" />
</g><g transform="rotate(45.000000 14.2500 11.0400)">
<text x="14.2500" y="12.0400"
textLength="8.2286" font-size="2.6667" lengthAdjust="spacingAndGlyphs"
text-anchor="middle" opacity="0" stroke-opacity="0">---</text>
</g>
<g class="stroked-text"><desc>---</desc>
<path d="M11.8595 8.8511
L12.9370 9.9286
" />
<path d="M13.6105 10.6020
L14.6880 11.6795
" />
<path d="M15.3614 12.3530
L16.4389 13.4305
" />
</g></g>
<g style="fill:none; 
stroke:#000000; stroke-width:0.1500; stroke-opacity:1; 
stroke-linecap:round; stroke-linejoin:round;">
<g transform="rotate(-90.000000 30.3450 36.0000)">
<text x="30.3450" y="36.5000"
textLength="3.1548" font-size="1.3333" lengthAdjust="spacingAndGlyphs"
text-anchor="middle" opacity="0" stroke-opacity="0">C13</text>
</g>
<g class="stroked-text"><desc>C13</desc>
<path d="M30.7046 36.6429
L30.7522 36.6905
" />
<path d="M30.7522 36.6905
L30.7998 36.8333
" />
<path d="M30.7998 36.8333
L30.7998 36.9286
" />
<path d="M30.7998 36.9286
L30.7522 37.0714
" />
<path d="M30.7522 37.0714
L30.6570 37.1667
" />
<path d="M30.6570 37.1667
L30.5617 37.2143
" />
<path d="M30.5617 37.2143
L30.3712 37.2619
" />
<path d="M30.3712 37.2619
L30.2284 37.2619
" />
<path d="M30.2284 37.2619
L30.0379 37.2143
" />
<path d="M30.0379 37.2143
L29.9427 37.1667
" />
<path d="M29.9427 37.1667
L29.8474 37.0714
" />
<path d="M29.8474 37.0714
L29.7998 36.9286
" />
<path d="M29.7998 36.9286
L29.7998 36.8333
" />
<path d="M29.7998 36.8333
L29.8474 36.6905
" />
<path d="M29.8474 36.6905
L29.8951 36.6429
" />
<path d="M30.7998 35.6905
L30.7998 36.2619
" />
<path d="M30.7998 35.9762
L29.7998 35.9762
" />
<path d="M29.7998 35.9762
L29.9427 36.0714
" />
<path d="M29.9427 36.0714
L30.0379 36.1667
" />
<path d="M30.0379 36.1667
L30.0855 36.2619
" />
<path d="M29.7998 35.3571
L29.7998 34.7381
" />
<path d="M29.7998 34.7381
L30.1808 35.0714
" />
<path d="M30.1808 35.0714
L30.1808 34.9286
" />
<path d="M30.1808 34.9286
L30.2284 34.8333
" />
<path d="M30.2284 34.8333
L30.2760 34.7857
" />
<path d="M30.2760 34.7857
L30.3712 34.7381
" />
<path d="M30.3712 34.7381
L30.6093 34.7381
" />
<path d="M30.6093 34.7381
L30.7046 34.7857
" />
<path d="M30.7046 34.7857
L30.7522 34.8333
" />
<path d="M30.7522 34.8333
L30.7998 34.9286
" />
<path d="M30.7998 34.9286
L30.7998 35.2143
" />
<path d="M30.7998 35.2143
L30.7522 35.3095
" />
<path d="M30.7522 35.3095
L30.7046 35.3571
" />
</g><text x="38.0000" y="41.0400"
textLength="3.1548" font-size="1.3333" lengthAdjust="spacingAndGlyphs"
text-anchor="middle" opacity="0" stroke-opacity="0">C11</text>
<g class="stroked-text"><desc>C11</desc>
<path d="M37.3571 40.8996
L37.3095 40.9472
" />
<path d="M37.3095 40.9472
L37.1667 40.9948
" />
<path d="M37.1667 40.9948
L37.0714 40.9948
" />
<path d="M37.0714 40.9948
L36.9286 40.9472
" />
<path d="M36.9286 40.9472
L36.8333 40.8520
" />
<path d="M36.8333 40.8520
L36.7857 40.7567
" />
<path d="M36.7857 40.7567
L36.7381 40.5662
" />
<path d="M36.7381 40.5662
L36.7381 40.4234
" />
<path d="M36.7381 40.4234
L36.7857 40.2329
" />
<path d="M36.7857 40.2329
L36.8333 40.1377
" />
<path d="M36.8333 40.1377
L36.9286 40.0424
" />
<path d="M36.9286 40.0424
L37.0714 39.9948
" />
<path d="M37.0714 39.9948
L37.1667 39.9948
" />
<path d="M37.1667 39.9948
L37.3095 40.0424
" />
<path d="M37.3095 40.0424
L37.3571 40.0901
" />
<path d="M38.3095 40.9948
L37.7381 40.9948
" />
<path d="M38.0238 40.9948
L38.0238 39.9948
" />
<path d="M38.0238 39.9948
L37.9286 40.1377
" />
<path d="M37.9286 40.1377
L37.8333 40.2329
" />
<path d="M37.8333 40.2329
L37.7381 40.2805
" />
<path d="M39.2619 40.9948
L38.6905 40.9948
" />
<path d="M38.9762 40.9948
L38.9762 39.9948
" />
<path d="M38.9762 39.9948
L38.8810 40.1377
" />
<path d="M38.8810 40.1377
L38.7857 40.2329
" />
<path d="M38.7857 40.2329
L38.6905 40.2805
" />
</g><text x="21.1750" y="3.0250"
textLength="3.1548" font-size="1.3333" lengthAdjust="spacingAndGlyphs"
text-anchor="middle" opacity="0" stroke-opacity="0">C15</text>
<g class="stroked-text"><desc>C15</desc>
<path d="M20.5321 2.8846
L20.4845 2.9322
" />
<path d="M20.4845 2.9322
L20.3417 2.9798
" />
<path d="M20.3417 2.9798
L20.2464 2.9798
" />
<path d="M20.2464 2.9798
L20.1036 2.9322
" />
<path d="M20.1036 2.9322
L20.0083 2.8370
" />
<path d="M20.0083 2.8370
L19.9607 2.7417
" />
<path d="M19.9607 2.7417
L19.9131 2.5512
" />
<path d="M19.9131 2.5512
L19.9131 2.4084
" />
<path d="M19.9131 2.4084
L19.9607 2.2179
" />
<path d="M19.9607 2.2179
L20.0083 2.1227
" />
<path d="M20.0083 2.1227
L20.1036 2.0274
" />
<path d="M20.1036 2.0274
L20.2464 1.9798
" />
<path d="M20.2464 1.9798
L20.3417 1.9798
" />
<path d="M20.3417 1.9798
L20.4845 2.0274
" />
<path d="M20.4845 2.0274
L20.5321 2.0751
" />
<path d="M21.4845 2.9798
L20.9131 2.9798
" />
<path d="M21.1988 2.9798
L21.1988 1.9798
" />
<path d="M21.1988 1.9798
L21.1036 2.1227
" />
<path d="M21.1036 2.1227
L21.0083 2.2179
" />
<path d="M21.0083 2.2179
L20.9131 2.2655
" />
<path d="M22.3893 1.9798
L21.9131 1.9798
" />
<path d="M21.9131 1.9798
L21.8655 2.4560
" />
<path d="M21.8655 2.4560
L21.9131 2.4084
" />
<path d="M21.9131 2.4084
L22.0083 2.3608
" />
<path d="M22.0083 2.3608
L22.2464 2.3608
" />
<path d="M22.2464 2.3608
L22.3417 2.4084
" />
<path d="M22.3417 2.4084
L22.3893 2.4560
" />
<path d="M22.3893 2.4560
L22.4369 2.5512
" />
<path d="M22.4369 2.5512
L22.4369 2.7893
" />
<path d="M22.4369 2.7893
L22.3893 2.8846
" />
<path d="M22.3893 2.8846
L22.3417 2.9322
" />
<path d="M22.3417 2.9322
L22.2464 2.9798
" />
<path d="M22.2464 2.9798
L22.0083 2.9798
" />
<path d="M22.0083 2.9798
L21.9131 2.9322
" />
<path d="M21.9131 2.9322
L21.8655 2.8846
" />
</g><text x="19.6948" y="52.4466"
textLength="2.2024" font-size="1.3333" lengthAdjust="spacingAndGlyphs"
text-anchor="middle" opacity="0" stroke-opacity="0">C2</text>
<g class="stroked-text"><desc>C2</desc>
<path d="M19.5282 52.3062
L19.4805 52.3538
" />
<path d="M19.4805 52.3538
L19.3377 52.4014
" />
<path d="M19.3377 52.4014
L19.2425 52.4014
" />
<path d="M19.2425 52.4014
L19.0996 52.3538
" />
<path d="M19.0996 52.3538
L19.0044 52.2586
" />
<path d="M19.0044 52.2586
L18.9567 52.1633
" />
<path d="M18.9567 52.1633
L18.9091 51.9728
" />
<path d="M18.9091 51.9728
L18.9091 51.8300
" />
<path d="M18.9091 51.8300
L18.9567 51.6395
" />
<path d="M18.9567 51.6395
L19.0044 51.5443
" />
<path d="M19.0044 51.5443
L19.0996 51.4490
" />
<path d="M19.0996 51.4490
L19.2425 51.4014
" />
<path d="M19.2425 51.4014
L19.3377 51.4014
" />
<path d="M19.3377 51.4014
L19.4805 51.4490
" />
<path d="M19.4805 51.4490
L19.5282 51.4967
" />
<path d="M19.9091 51.4967
L19.9567 51.4490
" />
<path d="M19.9567 51.4490
L20.0520 51.4014
" />
<path d="M20.0520 51.4014
L20.2901 51.4014
" />
<path d="M20.2901 51.4014
L20.3853 51.4490
" />
<path d="M20.3853 51.4490
L20.4329 51.4967
" />
<path d="M20.4329 51.4967
L20.4805 51.5919
" />
<path d="M20.4805 51.5919
L20.4805 51.6871
" />
<path d="M20.4805 51.6871
L20.4329 51.8300
" />
<path d="M20.4329 51.8300
L19.8615 52.4014
" />
<path d="M19.8615 52.4014
L20.4805 52.4014
" />
</g><text x="31.6750" y="58.7900"
textLength="3.1548" font-size="1.3333" lengthAdjust="spacingAndGlyphs"
text-anchor="middle" opacity="0" stroke-opacity="0">C20</text>
<g class="stroked-text"><desc>C20</desc>
<path d="M31.0321 58.6496
L30.9845 58.6972
" />
<path d="M30.9845 58.6972
L30.8417 58.7448
" />
<path d="M30.8417 58.7448
L30.7464 58.7448
" />
<path d="M30.7464 58.7448
L30.6036 58.6972
" />
<path d="M30.6036 58.6972
L30.5083 58.6020
" />
<path d="M30.5083 58.6020
L30.4607 58.5067
" />
<path d="M30.4607 58.5067
L30.4131 58.3162
" />
<path d="M30.4131 58.3162
L30.4131 58.1734
" />
<path d="M30.4131 58.1734
L30.4607 57.9829
" />
<path d="M30.4607 57.9829
L30.5083 57.8877
" />
<path d="M30.5083 57.8877
L30.6036 57.7924
" />
<path d="M30.6036 57.7924
L30.7464 57.7448
" />
<path d="M30.7464 57.7448
L30.8417 57.7448
" />
<path d="M30.8417 57.7448
L30.9845 57.7924
" />
<path d="M30.9845 57.7924
L31.0321 57.8401
" />
<path d="M31.4131 57.8401
L31.4607 57.7924
" />
<path d="M31.4607 57.7924
L31.5560 57.7448
" />
<path d="M31.5560 57.7448
L31.7940 57.7448
" />
<path d="M31.7940 57.7448
L31.8893 57.7924
" />
<path d="M31.8893 57.7924
L31.9369 57.8401
" />
<path d="M31.9369 57.8401
L31.9845 57.9353
" />
<path d="M31.9845 57.9353
L31.9845 58.0305
" />
<path d="M31.9845 58.0305
L31.9369 58.1734
" />
<path d="M31.9369 58.1734
L31.3655 58.7448
" />
<path d="M31.3655 58.7448
L31.9845 58.7448
" />
<path d="M32.6036 57.7448
L32.6988 57.7448
" />
<path d="M32.6988 57.7448
L32.7940 57.7924
" />
<path d="M32.7940 57.7924
L32.8417 57.8401
" />
<path d="M32.8417 57.8401
L32.8893 57.9353
" />
<path d="M32.8893 57.9353
L32.9369 58.1258
" />
<path d="M32.9369 58.1258
L32.9369 58.3639
" />
<path d="M32.9369 58.3639
L32.8893 58.5543
" />
<path d="M32.8893 58.5543
L32.8417 58.6496
" />
<path d="M32.8417 58.6496
L32.7940 58.6972
" />
<path d="M32.7940 58.6972
L32.6988 58.7448
" />
<path d="M32.6988 58.7448
L32.6036 58.7448
" />
<path d="M32.6036 58.7448
L32.5083 58.6972
" />
<path d="M32.5083 58.6972
L32.4607 58.6496
" />
<path d="M32.4607 58.6496
L32.4131 58.5543
" />
<path d="M32.4131 58.5543
L32.3655 58.3639
" />
<path d="M32.3655 58.3639
L32.3655 58.1258
" />
<path d="M32.3655 58.1258
L32.4131 57.9353
" />
<path d="M32.4131 57.9353
L32.4607 57.8401
" />
<path d="M32.4607 57.8401
L32.5083 57.7924
" />
<path d="M32.5083 57.7924
L32.6036 57.7448
" />
</g><text x="33.3000" y="11.1900"
textLength="2.2024" font-size="1.3333" lengthAdjust="spacingAndGlyphs"
text-anchor="middle" opacity="0" stroke-opacity="0">R2</text>
<g class="stroked-text"><desc>R2</desc>
<path d="M33.1333 11.1448
L32.8000 10.6686
" />
<path d="M32.5619 11.1448
L32.5619 10.1448
" />
<path d="M32.5619 10.1448
L32.9429 10.1448
" />
<path d="M32.9429 10.1448
L33.0381 10.1924
" />
<path d="M33.0381 10.1924
L33.0857 10.2401
" />
<path d="M33.0857 10.2401
L33.1333 10.3353
" />
<path d="M33.1333 10.3353
L33.1333 10.4782
" />
<path d="M33.1333 10.4782
L33.0857 10.5734
" />
<path d="M33.0857 10.5734
L33.0381 10.6210
" />
<path d="M33.0381 10.6210
L32.9429 10.6686
" />
<path d="M32.9429 10.6686
L32.5619 10.6686
" />
<path d="M33.5143 10.2401
L33.5619 10.1924
" />
<path d="M33.5619 10.1924
L33.6571 10.1448
" />
<path d="M33.6571 10.1448
L33.8952 10.1448
" />
<path d="M33.8952 10.1448
L33.9905 10.1924
" />
<path d="M33.9905 10.1924
L34.0381 10.2401
" />
<path d="M34.0381 10.2401
L34.0857 10.3353
" />
<path d="M34.0857 10.3353
L34.0857 10.4305
" />
<path d="M34.0857 10.4305
L34.0381 10.5734
" />
<path d="M34.0381 10.5734
L33.4667 11.1448
" />
<path d="M33.4667 11.1448
L34.0857 11.1448
" />
</g><text x="20.9050" y="34.4250"
textLength="2.2024" font-size="1.3333" lengthAdjust="spacingAndGlyphs"
text-anchor="middle" opacity="0" stroke-opacity="0">C6</text>
<g class="stroked-text"><desc>C6</desc>
<path d="M20.7383 34.2846
L20.6907 34.3322
" />
<path d="M20.6907 34.3322
L20.5479 34.3798
" />
<path d="M20.5479 34.3798
L20.4526 34.3798
" />
<path d="M20.4526 34.3798
L20.3098 34.3322
" />
<path d="M20.3098 34.3322
L20.2145 34.2370
" />
<path d="M20.2145 34.2370
L20.1669 34.1417
" />
<path d="M20.1669 34.1417
L20.1193 33.9512
" />
<path d="M20.1193 33.9512
L20.1193 33.8084
" />
<path d="M20.1193 33.8084
L20.1669 33.6179
" />
<path d="M20.1669 33.6179
L20.2145 33.5227
" />
<path d="M20.2145 33.5227
L20.3098 33.4274
" />
<path d="M20.3098 33.4274
L20.4526 33.3798
" />
<path d="M20.4526 33.3798
L20.5479 33.3798
" />
<path d="M20.5479 33.3798
L20.6907 33.4274
" />
<path d="M20.6907 33.4274
L20.7383 33.4751
" />
<path d="M21.5955 33.3798
L21.4050 33.3798
" />
<path d="M21.4050 33.3798
L21.3098 33.4274
" />
<path d="M21.3098 33.4274
L21.2621 33.4751
" />
<path d="M21.2621 33.4751
L21.1669 33.6179
" />
<path d="M21.1669 33.6179
L21.1193 33.8084
" />
<path d="M21.1193 33.8084
L21.1193 34.1893
" />
<path d="M21.1193 34.1893
L21.1669 34.2846
" />
<path d="M21.1669 34.2846
L21.2145 34.3322
" />
<path d="M21.2145 34.3322
L21.3098 34.3798
" />
<path d="M21.3098 34.3798
L21.5002 34.3798
" />
<path d="M21.5002 34.3798
L21.5955 34.3322
" />
<path d="M21.5955 34.3322
L21.6431 34.2846
" />
<path d="M21.6431 34.2846
L21.6907 34.1893
" />
<path d="M21.6907 34.1893
L21.6907 33.9512
" />
<path d="M21.6907 33.9512
L21.6431 33.8560
" />
<path d="M21.6431 33.8560
L21.5955 33.8084
" />
<path d="M21.5955 33.8084
L21.5002 33.7608
" />
<path d="M21.5002 33.7608
L21.3098 33.7608
" />
<path d="M21.3098 33.7608
L21.2145 33.8084
" />
<path d="M21.2145 33.8084
L21.1669 33.8560
" />
<path d="M21.1669 33.8560
L21.1193 33.9512
" />
</g><text x="36.2500" y="39.2900"
textLength="3.1548" font-size="1.3333" lengthAdjust="spacingAndGlyphs"
text-anchor="middle" opacity="0" stroke-opacity="0">C12</text>
<g class="stroked-text"><desc>C12</desc>
<path d="M35.6071 39.1496
L35.5595 39.1972
" />
<path d="M35.5595 39.1972
L35.4167 39.2448
" />
<path d="M35.4167 39.2448
L35.3214 39.2448
" />
<path d="M35.3214 39.2448
L35.1786 39.1972
" />
<path d="M35.1786 39.1972
L35.0833 39.1020
" />
<path d="M35.0833 39.1020
L35.0357 39.0067
" />
<path d="M35.0357 39.0067
L34.9881 38.8162
" />
<path d="M34.9881 38.8162
L34.9881 38.6734
" />
<path d="M34.9881 38.6734
L35.0357 38.4829
" />
<path d="M35.0357 38.4829
L35.0833 38.3877
" />
<path d="M35.0833 38.3877
L35.1786 38.2924
" />
<path d="M35.1786 38.2924
L35.3214 38.2448
" />
<path d="M35.3214 38.2448
L35.4167 38.2448
" />
<path d="M35.4167 38.2448
L35.5595 38.2924
" />
<path d="M35.5595 38.2924
L35.6071 38.3401
" />
<path d="M36.5595 39.2448
L35.9881 39.2448
" />
<path d="M36.2738 39.2448
L36.2738 38.2448
" />
<path d="M36.2738 38.2448
L36.1786 38.3877
" />
<path d="M36.1786 38.3877
L36.0833 38.4829
" />
<path d="M36.0833 38.4829
L35.9881 38.5305
" />
<path d="M36.9405 38.3401
L36.9881 38.2924
" />
<path d="M36.9881 38.2924
L37.0833 38.2448
" />
<path d="M37.0833 38.2448
L37.3214 38.2448
" />
<path d="M37.3214 38.2448
L37.4167 38.2924
" />
<path d="M37.4167 38.2924
L37.4643 38.3401
" />
<path d="M37.4643 38.3401
L37.5119 38.4353
" />
<path d="M37.5119 38.4353
L37.5119 38.5305
" />
<path d="M37.5119 38.5305
L37.4643 38.6734
" />
<path d="M37.4643 38.6734
L36.8929 39.2448
" />
<path d="M36.8929 39.2448
L37.5119 39.2448
" />
</g><text x="25.9650" y="32.0400"
textLength="2.2024" font-size="1.3333" lengthAdjust="spacingAndGlyphs"
text-anchor="middle" opacity="0" stroke-opacity="0">C3</text>
<g class="stroked-text"><desc>C3</desc>
<path d="M25.7983 31.8996
L25.7507 31.9472
" />
<path d="M25.7507 31.9472
L25.6079 31.9948
" />
<path d="M25.6079 31.9948
L25.5126 31.9948
" />
<path d="M25.5126 31.9948
L25.3698 31.9472
" />
<path d="M25.3698 31.9472
L25.2745 31.8520
" />
<path d="M25.2745 31.8520
L25.2269 31.7567
" />
<path d="M25.2269 31.7567
L25.1793 31.5662
" />
<path d="M25.1793 31.5662
L25.1793 31.4234
" />
<path d="M25.1793 31.4234
L25.2269 31.2329
" />
<path d="M25.2269 31.2329
L25.2745 31.1377
" />
<path d="M25.2745 31.1377
L25.3698 31.0424
" />
<path d="M25.3698 31.0424
L25.5126 30.9948
" />
<path d="M25.5126 30.9948
L25.6079 30.9948
" />
<path d="M25.6079 30.9948
L25.7507 31.0424
" />
<path d="M25.7507 31.0424
L25.7983 31.0901
" />
<path d="M26.1317 30.9948
L26.7507 30.9948
" />
<path d="M26.7507 30.9948
L26.4174 31.3758
" />
<path d="M26.4174 31.3758
L26.5602 31.3758
" />
<path d="M26.5602 31.3758
L26.6555 31.4234
" />
<path d="M26.6555 31.4234
L26.7031 31.4710
" />
<path d="M26.7031 31.4710
L26.7507 31.5662
" />
<path d="M26.7507 31.5662
L26.7507 31.8043
" />
<path d="M26.7507 31.8043
L26.7031 31.8996
" />
<path d="M26.7031 31.8996
L26.6555 31.9472
" />
<path d="M26.6555 31.9472
L26.5602 31.9948
" />
<path d="M26.5602 31.9948
L26.2745 31.9948
" />
<path d="M26.2745 31.9948
L26.1793 31.9472
" />
<path d="M26.1793 31.9472
L26.1317 31.8996
" />
</g><text x="27.8230" y="37.3250"
textLength="2.2024" font-size="1.3333" lengthAdjust="spacingAndGlyphs"
text-anchor="middle" opacity="0" stroke-opacity="0">C8</text>
<g class="stroked-text"><desc>C8</desc>
<path d="M27.6563 37.1846
L27.6087 37.2322
" />
<path d="M27.6087 37.2322
L27.4659 37.2798
" />
<path d="M27.4659 37.2798
L27.3706 37.2798
" />
<path d="M27.3706 37.2798
L27.2278 37.2322
" />
<path d="M27.2278 37.2322
L27.1325 37.1370
" />
<path d="M27.1325 37.1370
L27.0849 37.0417
" />
<path d="M27.0849 37.0417
L27.0373 36.8512
" />
<path d="M27.0373 36.8512
L27.0373 36.7084
" />
<path d="M27.0373 36.7084
L27.0849 36.5179
" />
<path d="M27.0849 36.5179
L27.1325 36.4227
" />
<path d="M27.1325 36.4227
L27.2278 36.3274
" />
<path d="M27.2278 36.3274
L27.3706 36.2798
" />
<path d="M27.3706 36.2798
L27.4659 36.2798
" />
<path d="M27.4659 36.2798
L27.6087 36.3274
" />
<path d="M27.6087 36.3274
L27.6563 36.3751
" />
<path d="M28.2278 36.7084
L28.1325 36.6608
" />
<path d="M28.1325 36.6608
L28.0849 36.6132
" />
<path d="M28.0849 36.6132
L28.0373 36.5179
" />
<path d="M28.0373 36.5179
L28.0373 36.4703
" />
<path d="M28.0373 36.4703
L28.0849 36.3751
" />
<path d="M28.0849 36.3751
L28.1325 36.3274
" />
<path d="M28.1325 36.3274
L28.2278 36.2798
" />
<path d="M28.2278 36.2798
L28.4182 36.2798
" />
<path d="M28.4182 36.2798
L28.5135 36.3274
" />
<path d="M28.5135 36.3274
L28.5611 36.3751
" />
<path d="M28.5611 36.3751
L28.6087 36.4703
" />
<path d="M28.6087 36.4703
L28.6087 36.5179
" />
<path d="M28.6087 36.5179
L28.5611 36.6132
" />
<path d="M28.5611 36.6132
L28.5135 36.6608
" />
<path d="M28.5135 36.6608
L28.4182 36.7084
" />
<path d="M28.4182 36.7084
L28.2278 36.7084
" />
<path d="M28.2278 36.7084
L28.1325 36.7560
" />
<path d="M28.1325 36.7560
L28.0849 36.8036
" />
<path d="M28.0849 36.8036
L28.0373 36.8989
" />
<path d="M28.0373 36.8989
L28.0373 37.0893
" />
<path d="M28.0373 37.0893
L28.0849 37.1846
" />
<path d="M28.0849 37.1846
L28.1325 37.2322
" />
<path d="M28.1325 37.2322
L28.2278 37.2798
" />
<path d="M28.2278 37.2798
L28.4182 37.2798
" />
<path d="M28.4182 37.2798
L28.5135 37.2322
" />
<path d="M28.5135 37.2322
L28.5611 37.1846
" />
<path d="M28.5611 37.1846
L28.6087 37.0893
" />
<path d="M28.6087 37.0893
L28.6087 36.8989
" />
<path d="M28.6087 36.8989
L28.5611 36.8036
" />
<path d="M28.5611 36.8036
L28.5135 36.7560
" />
<path d="M28.5135 36.7560
L28.4182 36.7084
" />
</g><text x="31.8000" y="64.3900"
textLength="3.1548" font-size="1.3333" lengthAdjust="spacingAndGlyphs"
text-anchor="middle" opacity="0" stroke-opacity="0">C21</text>
<g class="stroked-text"><desc>C21</desc>
<path d="M31.1571 64.2496
L31.1095 64.2972
" />
<path d="M31.1095 64.2972
L30.9667 64.3448
" />
<path d="M30.9667 64.3448
L30.8714 64.3448
" />
<path d="M30.8714 64.3448
L30.7286 64.2972
" />
<path d="M30.7286 64.2972
L30.6333 64.2020
" />
<path d="M30.6333 64.2020
L30.5857 64.1067
" />
<path d="M30.5857 64.1067
L30.5381 63.9162
" />
<path d="M30.5381 63.9162
L30.5381 63.7734
" />
<path d="M30.5381 63.7734
L30.5857 63.5829
" />
<path d="M30.5857 63.5829
L30.6333 63.4877
" />
<path d="M30.6333 63.4877
L30.7286 63.3924
" />
<path d="M30.7286 63.3924
L30.8714 63.3448
" />
<path d="M30.8714 63.3448
L30.9667 63.3448
" />
<path d="M30.9667 63.3448
L31.1095 63.3924
" />
<path d="M31.1095 63.3924
L31.1571 63.4401
" />
<path d="M31.5381 63.4401
L31.5857 63.3924
" />
<path d="M31.5857 63.3924
L31.6810 63.3448
" />
<path d="M31.6810 63.3448
L31.9190 63.3448
" />
<path d="M31.9190 63.3448
L32.0143 63.3924
" />
<path d="M32.0143 63.3924
L32.0619 63.4401
" />
<path d="M32.0619 63.4401
L32.1095 63.5353
" />
<path d="M32.1095 63.5353
L32.1095 63.6305
" />
<path d="M32.1095 63.6305
L32.0619 63.7734
" />
<path d="M32.0619 63.7734
L31.4905 64.3448
" />
<path d="M31.4905 64.3448
L32.1095 64.3448
" />
<path d="M33.0619 64.3448
L32.4905 64.3448
" />
<path d="M32.7762 64.3448
L32.7762 63.3448
" />
<path d="M32.7762 63.3448
L32.6810 63.4877
" />
<path d="M32.6810 63.4877
L32.5857 63.5829
" />
<path d="M32.5857 63.5829
L32.4905 63.6305
" />
</g><text x="25.5500" y="11.1400"
textLength="2.2024" font-size="1.3333" lengthAdjust="spacingAndGlyphs"
text-anchor="middle" opacity="0" stroke-opacity="0">R1</text>
<g class="stroked-text"><desc>R1</desc>
<path d="M25.3833 11.0948
L25.0500 10.6186
" />
<path d="M24.8119 11.0948
L24.8119 10.0948
" />
<path d="M24.8119 10.0948
L25.1929 10.0948
" />
<path d="M25.1929 10.0948
L25.2881 10.1424
" />
<path d="M25.2881 10.1424
L25.3357 10.1901
" />
<path d="M25.3357 10.1901
L25.3833 10.2853
" />
<path d="M25.3833 10.2853
L25.3833 10.4282
" />
<path d="M25.3833 10.4282
L25.3357 10.5234
" />
<path d="M25.3357 10.5234
L25.2881 10.5710
" />
<path d="M25.2881 10.5710
L25.1929 10.6186
" />
<path d="M25.1929 10.6186
L24.8119 10.6186
" />
<path d="M26.3357 11.0948
L25.7643 11.0948
" />
<path d="M26.0500 11.0948
L26.0500 10.0948
" />
<path d="M26.0500 10.0948
L25.9548 10.2377
" />
<path d="M25.9548 10.2377
L25.8595 10.3329
" />
<path d="M25.8595 10.3329
L25.7643 10.3805
" />
</g><text x="11.5000" y="49.5400"
textLength="2.2024" font-size="1.3333" lengthAdjust="spacingAndGlyphs"
text-anchor="middle" opacity="0" stroke-opacity="0">R6</text>
<g class="stroked-text"><desc>R6</desc>
<path d="M11.3333 49.4948
L11.0000 49.0186
" />
<path d="M10.7619 49.4948
L10.7619 48.4948
" />
<path d="M10.7619 48.4948
L11.1429 48.4948
" />
<path d="M11.1429 48.4948
L11.2381 48.5424
" />
<path d="M11.2381 48.5424
L11.2857 48.5901
" />
<path d="M11.2857 48.5901
L11.3333 48.6853
" />
<path d="M11.3333 48.6853
L11.3333 48.8282
" />
<path d="M11.3333 48.8282
L11.2857 48.9234
" />
<path d="M11.2857 48.9234
L11.2381 48.9710
" />
<path d="M11.2381 48.9710
L11.1429 49.0186
" />
<path d="M11.1429 49.0186
L10.7619 49.0186
" />
<path d="M12.1905 48.4948
L12.0000 48.4948
" />
<path d="M12.0000 48.4948
L11.9048 48.5424
" />
<path d="M11.9048 48.5424
L11.8571 48.5901
" />
<path d="M11.8571 48.5901
L11.7619 48.7329
" />
<path d="M11.7619 48.7329
L11.7143 48.9234
" />
<path d="M11.7143 48.9234
L11.7143 49.3043
" />
<path d="M11.7143 49.3043
L11.7619 49.3996
" />
<path d="M11.7619 49.3996
L11.8095 49.4472
" />
<path d="M11.8095 49.4472
L11.9048 49.4948
" />
<path d="M11.9048 49.4948
L12.0952 49.4948
" />
<path d="M12.0952 49.4948
L12.1905 49.4472
" />
<path d="M12.1905 49.4472
L12.2381 49.3996
" />
<path d="M12.2381 49.3996
L12.2857 49.3043
" />
<path d="M12.2857 49.3043
L12.2857 49.0662
" />
<path d="M12.2857 49.0662
L12.2381 48.9710
" />
<path d="M12.2381 48.9710
L12.1905 48.9234
" />
<path d="M12.1905 48.9234
L12.0952 48.8758
" />
<path d="M12.0952 48.8758
L11.9048 48.8758
" />
<path d="M11.9048 48.8758
L11.8095 48.9234
" />
<path d="M11.8095 48.9234
L11.7619 48.9710
" />
<path d="M11.7619 48.9710
L11.7143 49.0662
" />
</g><text x="16.8450" y="44.9670"
textLength="3.1548" font-size="1.3333" lengthAdjust="spacingAndGlyphs"
text-anchor="middle" opacity="0" stroke-opacity="0">C18</text>
<g class="stroked-text"><desc>C18</desc>
<path d="M16.2021 44.8266
L16.1545 44.8742
" />
<path d="M16.1545 44.8742
L16.0117 44.9218
" />
<path d="M16.0117 44.9218
L15.9164 44.9218
" />
<path d="M15.9164 44.9218
L15.7736 44.8742
" />
<path d="M15.7736 44.8742
L15.6783 44.7790
" />
<path d="M15.6783 44.7790
L15.6307 44.6837
" />
<path d="M15.6307 44.6837
L15.5831 44.4932
" />
<path d="M15.5831 44.4932
L15.5831 44.3504
" />
<path d="M15.5831 44.3504
L15.6307 44.1599
" />
<path d="M15.6307 44.1599
L15.6783 44.0647
" />
<path d="M15.6783 44.0647
L15.7736 43.9694
" />
<path d="M15.7736 43.9694
L15.9164 43.9218
" />
<path d="M15.9164 43.9218
L16.0117 43.9218
" />
<path d="M16.0117 43.9218
L16.1545 43.9694
" />
<path d="M16.1545 43.9694
L16.2021 44.0171
" />
<path d="M17.1545 44.9218
L16.5831 44.9218
" />
<path d="M16.8688 44.9218
L16.8688 43.9218
" />
<path d="M16.8688 43.9218
L16.7736 44.0647
" />
<path d="M16.7736 44.0647
L16.6783 44.1599
" />
<path d="M16.6783 44.1599
L16.5831 44.2075
" />
<path d="M17.7260 44.3504
L17.6307 44.3028
" />
<path d="M17.6307 44.3028
L17.5831 44.2552
" />
<path d="M17.5831 44.2552
L17.5355 44.1599
" />
<path d="M17.5355 44.1599
L17.5355 44.1123
" />
<path d="M17.5355 44.1123
L17.5831 44.0171
" />
<path d="M17.5831 44.0171
L17.6307 43.9694
" />
<path d="M17.6307 43.9694
L17.7260 43.9218
" />
<path d="M17.7260 43.9218
L17.9164 43.9218
" />
<path d="M17.9164 43.9218
L18.0117 43.9694
" />
<path d="M18.0117 43.9694
L18.0593 44.0171
" />
<path d="M18.0593 44.0171
L18.1069 44.1123
" />
<path d="M18.1069 44.1123
L18.1069 44.1599
" />
<path d="M18.1069 44.1599
L18.0593 44.2552
" />
<path d="M18.0593 44.2552
L18.0117 44.3028
" />
<path d="M18.0117 44.3028
L17.9164 44.3504
" />
<path d="M17.9164 44.3504
L17.7260 44.3504
" />
<path d="M17.7260 44.3504
L17.6307 44.3980
" />
<path d="M17.6307 44.3980
L17.5831 44.4456
" />
<path d="M17.5831 44.4456
L17.5355 44.5409
" />
<path d="M17.5355 44.5409
L17.5355 44.7313
" />
<path d="M17.5355 44.7313
L17.5831 44.8266
" />
<path d="M17.5831 44.8266
L17.6307 44.8742
" />
<path d="M17.6307 44.8742
L17.7260 44.9218
" />
<path d="M17.7260 44.9218
L17.9164 44.9218
" />
<path d="M17.9164 44.9218
L18.0117 44.8742
" />
<path d="M18.0117 44.8742
L18.0593 44.8266
" />
<path d="M18.0593 44.8266
L18.1069 44.7313
" />
<path d="M18.1069 44.7313
L18.1069 44.5409
" />
<path d="M18.1069 44.5409
L18.0593 44.4456
" />
<path d="M18.0593 44.4456
L18.0117 44.3980
" />
<path d="M18.0117 44.3980
L17.9164 44.3504
" />
</g><g transform="rotate(-45.000000 35.9040 49.3410)">
<text x="35.9040" y="49.8410"
textLength="2.1548" font-size="1.3333" lengthAdjust="spacingAndGlyphs"
text-anchor="middle" opacity="0" stroke-opacity="0">X1</text>
</g>
<g class="stroked-text"><desc>X1</desc>
<path d="M34.9461 49.5279
L36.1246 49.7636
" />
<path d="M35.4175 49.0565
L35.6532 50.2350
" />
<path d="M36.7644 49.1239
L36.3603 49.5279
" />
<path d="M36.5623 49.3259
L35.8552 48.6188
" />
<path d="M35.8552 48.6188
L35.8889 48.7871
" />
<path d="M35.8889 48.7871
L35.8889 48.9218
" />
<path d="M35.8889 48.9218
L35.8552 49.0228
" />
</g><text x="11.5000" y="42.5400"
textLength="2.2024" font-size="1.3333" lengthAdjust="spacingAndGlyphs"
text-anchor="middle" opacity="0" stroke-opacity="0">R5</text>
<g class="stroked-text"><desc>R5</desc>
<path d="M11.3333 42.4948
L11.0000 42.0186
" />
<path d="M10.7619 42.4948
L10.7619 41.4948
" />
<path d="M10.7619 41.4948
L11.1429 41.4948
" />
<path d="M11.1429 41.4948
L11.2381 41.5424
" />
<path d="M11.2381 41.5424
L11.2857 41.5901
" />
<path d="M11.2857 41.5901
L11.3333 41.6853
" />
<path d="M11.3333 41.6853
L11.3333 41.8282
" />
<path d="M11.3333 41.8282
L11.2857 41.9234
" />
<path d="M11.2857 41.9234
L11.2381 41.9710
" />
<path d="M11.2381 41.9710
L11.1429 42.0186
" />
<path d="M11.1429 42.0186
L10.7619 42.0186
" />
<path d="M12.2381 41.4948
L11.7619 41.4948
" />
<path d="M11.7619 41.4948
L11.7143 41.9710
" />
<path d="M11.7143 41.9710
L11.7619 41.9234
" />
<path d="M11.7619 41.9234
L11.8571 41.8758
" />
<path d="M11.8571 41.8758
L12.0952 41.8758
" />
<path d="M12.0952 41.8758
L12.1905 41.9234
" />
<path d="M12.1905 41.9234
L12.2381 41.9710
" />
<path d="M12.2381 41.9710
L12.2857 42.0662
" />
<path d="M12.2857 42.0662
L12.2857 42.3043
" />
<path d="M12.2857 42.3043
L12.2381 42.3996
" />
<path d="M12.2381 42.3996
L12.1905 42.4472
" />
<path d="M12.1905 42.4472
L12.0952 42.4948
" />
<path d="M12.0952 42.4948
L11.8571 42.4948
" />
<path d="M11.8571 42.4948
L11.7619 42.4472
" />
<path d="M11.7619 42.4472
L11.7143 42.3996
" />
</g><g transform="rotate(-90.000000 29.2133 53.5655)">
<text x="29.2133" y="54.0655"
textLength="2.2024" font-size="1.3333" lengthAdjust="spacingAndGlyphs"
text-anchor="middle" opacity="0" stroke-opacity="0">C9</text>
</g>
<g class="stroked-text"><desc>C9</desc>
<path d="M29.5729 53.7321
L29.6205 53.7798
" />
<path d="M29.6205 53.7798
L29.6681 53.9226
" />
<path d="M29.6681 53.9226
L29.6681 54.0179
" />
<path d="M29.6681 54.0179
L29.6205 54.1607
" />
<path d="M29.6205 54.1607
L29.5253 54.2560
" />
<path d="M29.5253 54.2560
L29.4300 54.3036
" />
<path d="M29.4300 54.3036
L29.2395 54.3512
" />
<path d="M29.2395 54.3512
L29.0967 54.3512
" />
<path d="M29.0967 54.3512
L28.9062 54.3036
" />
<path d="M28.9062 54.3036
L28.8110 54.2560
" />
<path d="M28.8110 54.2560
L28.7157 54.1607
" />
<path d="M28.7157 54.1607
L28.6681 54.0179
" />
<path d="M28.6681 54.0179
L28.6681 53.9226
" />
<path d="M28.6681 53.9226
L28.7157 53.7798
" />
<path d="M28.7157 53.7798
L28.7634 53.7321
" />
<path d="M29.6681 53.2560
L29.6681 53.0655
" />
<path d="M29.6681 53.0655
L29.6205 52.9702
" />
<path d="M29.6205 52.9702
L29.5729 52.9226
" />
<path d="M29.5729 52.9226
L29.4300 52.8274
" />
<path d="M29.4300 52.8274
L29.2395 52.7798
" />
<path d="M29.2395 52.7798
L28.8586 52.7798
" />
<path d="M28.8586 52.7798
L28.7634 52.8274
" />
<path d="M28.7634 52.8274
L28.7157 52.8750
" />
<path d="M28.7157 52.8750
L28.6681 52.9702
" />
<path d="M28.6681 52.9702
L28.6681 53.1607
" />
<path d="M28.6681 53.1607
L28.7157 53.2560
" />
<path d="M28.7157 53.2560
L28.7634 53.3036
" />
<path d="M28.7634 53.3036
L28.8586 53.3512
" />
<path d="M28.8586 53.3512
L29.0967 53.3512
" />
<path d="M29.0967 53.3512
L29.1919 53.3036
" />
<path d="M29.1919 53.3036
L29.2395 53.2560
" />
<path d="M29.2395 53.2560
L29.2872 53.1607
" />
<path d="M29.2872 53.1607
L29.2872 52.9702
" />
<path d="M29.2872 52.9702
L29.2395 52.8750
" />
<path d="M29.2395 52.8750
L29.1919 52.8274
" />
<path d="M29.1919 52.8274
L29.0967 52.7798
" />
</g><g transform="rotate(-90.000000 25.0250 26.8150)">
<text x="25.0250" y="27.3150"
textLength="1.9643" font-size="1.3333" lengthAdjust="spacingAndGlyphs"
text-anchor="middle" opacity="0" stroke-opacity="0">J1</text>
</g>
<g class="stroked-text"><desc>J1</desc>
<path d="M24.4798 27.1483
L25.1941 27.1483
" />
<path d="M25.1941 27.1483
L25.3370 27.1960
" />
<path d="M25.3370 27.1960
L25.4322 27.2912
" />
<path d="M25.4322 27.2912
L25.4798 27.4340
" />
<path d="M25.4798 27.4340
L25.4798 27.5293
" />
<path d="M25.4798 26.1483
L25.4798 26.7198
" />
<path d="M25.4798 26.4340
L24.4798 26.4340
" />
<path d="M24.4798 26.4340
L24.6227 26.5293
" />
<path d="M24.6227 26.5293
L24.7179 26.6245
" />
<path d="M24.7179 26.6245
L24.7655 26.7198
" />
</g><text x="22.9550" y="32.0400"
textLength="2.2024" font-size="1.3333" lengthAdjust="spacingAndGlyphs"
text-anchor="middle" opacity="0" stroke-opacity="0">C7</text>
<g class="stroked-text"><desc>C7</desc>
<path d="M22.7883 31.8996
L22.7407 31.9472
" />
<path d="M22.7407 31.9472
L22.5979 31.9948
" />
<path d="M22.5979 31.9948
L22.5026 31.9948
" />
<path d="M22.5026 31.9948
L22.3598 31.9472
" />
<path d="M22.3598 31.9472
L22.2645 31.8520
" />
<path d="M22.2645 31.8520
L22.2169 31.7567
" />
<path d="M22.2169 31.7567
L22.1693 31.5662
" />
<path d="M22.1693 31.5662
L22.1693 31.4234
" />
<path d="M22.1693 31.4234
L22.2169 31.2329
" />
<path d="M22.2169 31.2329
L22.2645 31.1377
" />
<path d="M22.2645 31.1377
L22.3598 31.0424
" />
<path d="M22.3598 31.0424
L22.5026 30.9948
" />
<path d="M22.5026 30.9948
L22.5979 30.9948
" />
<path d="M22.5979 30.9948
L22.7407 31.0424
" />
<path d="M22.7407 31.0424
L22.7883 31.0901
" />
<path d="M23.1217 30.9948
L23.7883 30.9948
" />
<path d="M23.7883 30.9948
L23.3598 31.9948
" />
</g><text x="20.5000" y="47.2900"
textLength="2.1548" font-size="1.3333" lengthAdjust="spacingAndGlyphs"
text-anchor="middle" opacity="0" stroke-opacity="0">X2</text>
<g class="stroked-text"><desc>X2</desc>
<path d="M19.6905 46.2448
L20.3571 47.2448
" />
<path d="M20.3571 46.2448
L19.6905 47.2448
" />
<path d="M20.6905 46.3401
L20.7381 46.2924
" />
<path d="M20.7381 46.2924
L20.8333 46.2448
" />
<path d="M20.8333 46.2448
L21.0714 46.2448
" />
<path d="M21.0714 46.2448
L21.1667 46.2924
" />
<path d="M21.1667 46.2924
L21.2143 46.3401
" />
<path d="M21.2143 46.3401
L21.2619 46.4353
" />
<path d="M21.2619 46.4353
L21.2619 46.5305
" />
<path d="M21.2619 46.5305
L21.2143 46.6734
" />
<path d="M21.2143 46.6734
L20.6429 47.2448
" />
<path d="M20.6429 47.2448
L21.2619 47.2448
" />
</g><g transform="rotate(-90.000000 41.4550 6.6360)">
<text x="41.4550" y="7.1360"
textLength="2.2024" font-size="1.3333" lengthAdjust="spacingAndGlyphs"
text-anchor="middle" opacity="0" stroke-opacity="0">R3</text>
</g>
<g class="stroked-text"><desc>R3</desc>
<path d="M41.9098 6.8027
L41.4336 7.1360
" />
<path d="M41.9098 7.3741
L40.9098 7.3741
" />
<path d="M40.9098 7.3741
L40.9098 6.9931
" />
<path d="M40.9098 6.9931
L40.9574 6.8979
" />
<path d="M40.9574 6.8979
L41.0051 6.8503
" />
<path d="M41.0051 6.8503
L41.1003 6.8027
" />
<path d="M41.1003 6.8027
L41.2432 6.8027
" />
<path d="M41.2432 6.8027
L41.3384 6.8503
" />
<path d="M41.3384 6.8503
L41.3860 6.8979
" />
<path d="M41.3860 6.8979
L41.4336 6.9931
" />
<path d="M41.4336 6.9931
L41.4336 7.3741
" />
<path d="M40.9098 6.4693
L40.9098 5.8503
" />
<path d="M40.9098 5.8503
L41.2908 6.1836
" />
<path d="M41.2908 6.1836
L41.2908 6.0408
" />
<path d="M41.2908 6.0408
L41.3384 5.9455
" />
<path d="M41.3384 5.9455
L41.3860 5.8979
" />
<path d="M41.3860 5.8979
L41.4812 5.8503
" />
<path d="M41.4812 5.8503
L41.7193 5.8503
" />
<path d="M41.7193 5.8503
L41.8146 5.8979
" />
<path d="M41.8146 5.8979
L41.8622 5.9455
" />
<path d="M41.8622 5.9455
L41.9098 6.0408
" />
<path d="M41.9098 6.0408
L41.9098 6.3265
" />
<path d="M41.9098 6.3265
L41.8622 6.4217
" />
<path d="M41.8622 6.4217
L41.8146 6.4693
" />
</g><g transform="rotate(-90.000000 22.8000 10.0150)">
<text x="22.8000" y="10.5150"
textLength="3.1548" font-size="1.3333" lengthAdjust="spacingAndGlyphs"
text-anchor="middle" opacity="0" stroke-opacity="0">C14</text>
</g>
<g class="stroked-text"><desc>C14</desc>
<path d="M23.1596 10.6579
L23.2072 10.7055
" />
<path d="M23.2072 10.7055
L23.2548 10.8483
" />
<path d="M23.2548 10.8483
L23.2548 10.9436
" />
<path d="M23.2548 10.9436
L23.2072 11.0864
" />
<path d="M23.2072 11.0864
L23.1120 11.1817
" />
<path d="M23.1120 11.1817
L23.0167 11.2293
" />
<path d="M23.0167 11.2293
L22.8262 11.2769
" />
<path d="M22.8262 11.2769
L22.6834 11.2769
" />
<path d="M22.6834 11.2769
L22.4929 11.2293
" />
<path d="M22.4929 11.2293
L22.3977 11.1817
" />
<path d="M22.3977 11.1817
L22.3024 11.0864
" />
<path d="M22.3024 11.0864
L22.2548 10.9436
" />
<path d="M22.2548 10.9436
L22.2548 10.8483
" />
<path d="M22.2548 10.8483
L22.3024 10.7055
" />
<path d="M22.3024 10.7055
L22.3501 10.6579
" />
<path d="M23.2548 9.7055
L23.2548 10.2769
" />
<path d="M23.2548 9.9912
L22.2548 9.9912
" />
<path d="M22.2548 9.9912
L22.3977 10.0864
" />
<path d="M22.3977 10.0864
L22.4929 10.1817
" />
<path d="M22.4929 10.1817
L22.5405 10.2769
" />
<path d="M22.5882 8.8483
L23.2548 8.8483
" />
<path d="M22.2072 9.0864
L22.9215 9.3245
" />
<path d="M22.9215 9.3245
L22.9215 8.7055
" />
</g><text x="37.0000" y="47.0400"
textLength="3.1548" font-size="1.3333" lengthAdjust="spacingAndGlyphs"
text-anchor="middle" opacity="0" stroke-opacity="0">C16</text>
<g class="stroked-text"><desc>C16</desc>
<path d="M36.3571 46.8996
L36.3095 46.9472
" />
<path d="M36.3095 46.9472
L36.1667 46.9948
" />
<path d="M36.1667 46.9948
L36.0714 46.9948
" />
<path d="M36.0714 46.9948
L35.9286 46.9472
" />
<path d="M35.9286 46.9472
L35.8333 46.8520
" />
<path d="M35.8333 46.8520
L35.7857 46.7567
" />
<path d="M35.7857 46.7567
L35.7381 46.5662
" />
<path d="M35.7381 46.5662
L35.7381 46.4234
" />
<path d="M35.7381 46.4234
L35.7857 46.2329
" />
<path d="M35.7857 46.2329
L35.8333 46.1377
" />
<path d="M35.8333 46.1377
L35.9286 46.0424
" />
<path d="M35.9286 46.0424
L36.0714 45.9948
" />
<path d="M36.0714 45.9948
L36.1667 45.9948
" />
<path d="M36.1667 45.9948
L36.3095 46.0424
" />
<path d="M36.3095 46.0424
L36.3571 46.0901
" />
<path d="M37.3095 46.9948
L36.7381 46.9948
" />
<path d="M37.0238 46.9948
L37.0238 45.9948
" />
<path d="M37.0238 45.9948
L36.9286 46.1377
" />
<path d="M36.9286 46.1377
L36.8333 46.2329
" />
<path d="M36.8333 46.2329
L36.7381 46.2805
" />
<path d="M38.1667 45.9948
L37.9762 45.9948
" />
<path d="M37.9762 45.9948
L37.8810 46.0424
" />
<path d="M37.8810 46.0424
L37.8333 46.0901
" />
<path d="M37.8333 46.0901
L37.7381 46.2329
" />
<path d="M37.7381 46.2329
L37.6905 46.4234
" />
<path d="M37.6905 46.4234
L37.6905 46.8043
" />
<path d="M37.6905 46.8043
L37.7381 46.8996
" />
<path d="M37.7381 46.8996
L37.7857 46.9472
" />
<path d="M37.7857 46.9472
L37.8810 46.9948
" />
<path d="M37.8810 46.9948
L38.0714 46.9948
" />
<path d="M38.0714 46.9948
L38.1667 46.9472
" />
<path d="M38.1667 46.9472
L38.2143 46.8996
" />
<path d="M38.2143 46.8996
L38.2619 46.8043
" />
<path d="M38.2619 46.8043
L38.2619 46.5662
" />
<path d="M38.2619 46.5662
L38.2143 46.4710
" />
<path d="M38.2143 46.4710
L38.1667 46.4234
" />
<path d="M38.1667 46.4234
L38.0714 46.3758
" />
<path d="M38.0714 46.3758
L37.8810 46.3758
" />
<path d="M37.8810 46.3758
L37.7857 46.4234
" />
<path d="M37.7857 46.4234
L37.7381 46.4710
" />
<path d="M37.7381 46.4710
L37.6905 46.5662
" />
</g><text x="37.6912" y="44.1616"
textLength="2.0119" font-size="1.3333" lengthAdjust="spacingAndGlyphs"
text-anchor="middle" opacity="0" stroke-opacity="0">L2</text>
<g class="stroked-text"><desc>L2</desc>
<path d="M37.5245 44.1164
L37.0483 44.1164
" />
<path d="M37.0483 44.1164
L37.0483 43.1164
" />
<path d="M37.8103 43.2117
L37.8579 43.1640
" />
<path d="M37.8579 43.1640
L37.9531 43.1164
" />
<path d="M37.9531 43.1164
L38.1912 43.1164
" />
<path d="M38.1912 43.1164
L38.2864 43.1640
" />
<path d="M38.2864 43.1640
L38.3341 43.2117
" />
<path d="M38.3341 43.2117
L38.3817 43.3069
" />
<path d="M38.3817 43.3069
L38.3817 43.4021
" />
<path d="M38.3817 43.4021
L38.3341 43.5450
" />
<path d="M38.3341 43.5450
L37.7626 44.1164
" />
<path d="M37.7626 44.1164
L38.3817 44.1164
" />
</g><text x="22.5000" y="58.5400"
textLength="2.2024" font-size="1.3333" lengthAdjust="spacingAndGlyphs"
text-anchor="middle" opacity="0" stroke-opacity="0">C1</text>
<g class="stroked-text"><desc>C1</desc>
<path d="M22.3333 58.3996
L22.2857 58.4472
" />
<path d="M22.2857 58.4472
L22.1429 58.4948
" />
<path d="M22.1429 58.4948
L22.0476 58.4948
" />
<path d="M22.0476 58.4948
L21.9048 58.4472
" />
<path d="M21.9048 58.4472
L21.8095 58.3520
" />
<path d="M21.8095 58.3520
L21.7619 58.2567
" />
<path d="M21.7619 58.2567
L21.7143 58.0662
" />
<path d="M21.7143 58.0662
L21.7143 57.9234
" />
<path d="M21.7143 57.9234
L21.7619 57.7329
" />
<path d="M21.7619 57.7329
L21.8095 57.6377
" />
<path d="M21.8095 57.6377
L21.9048 57.5424
" />
<path d="M21.9048 57.5424
L22.0476 57.4948
" />
<path d="M22.0476 57.4948
L22.1429 57.4948
" />
<path d="M22.1429 57.4948
L22.2857 57.5424
" />
<path d="M22.2857 57.5424
L22.3333 57.5901
" />
<path d="M23.2857 58.4948
L22.7143 58.4948
" />
<path d="M23.0000 58.4948
L23.0000 57.4948
" />
<path d="M23.0000 57.4948
L22.9048 57.6377
" />
<path d="M22.9048 57.6377
L22.8095 57.7329
" />
<path d="M22.8095 57.7329
L22.7143 57.7805
" />
</g><text x="29.7750" y="18.9515"
textLength="2.2500" font-size="1.3333" lengthAdjust="spacingAndGlyphs"
text-anchor="middle" opacity="0" stroke-opacity="0">U3</text>
<g class="stroked-text"><desc>U3</desc>
<path d="M29.0131 17.9063
L29.0131 18.7158
" />
<path d="M29.0131 18.7158
L29.0607 18.8111
" />
<path d="M29.0607 18.8111
L29.1083 18.8587
" />
<path d="M29.1083 18.8587
L29.2036 18.9063
" />
<path d="M29.2036 18.9063
L29.3940 18.9063
" />
<path d="M29.3940 18.9063
L29.4893 18.8587
" />
<path d="M29.4893 18.8587
L29.5369 18.8111
" />
<path d="M29.5369 18.8111
L29.5845 18.7158
" />
<path d="M29.5845 18.7158
L29.5845 17.9063
" />
<path d="M29.9655 17.9063
L30.5845 17.9063
" />
<path d="M30.5845 17.9063
L30.2512 18.2873
" />
<path d="M30.2512 18.2873
L30.3940 18.2873
" />
<path d="M30.3940 18.2873
L30.4893 18.3349
" />
<path d="M30.4893 18.3349
L30.5369 18.3825
" />
<path d="M30.5369 18.3825
L30.5845 18.4777
" />
<path d="M30.5845 18.4777
L30.5845 18.7158
" />
<path d="M30.5845 18.7158
L30.5369 18.8111
" />
<path d="M30.5369 18.8111
L30.4893 18.8587
" />
<path d="M30.4893 18.8587
L30.3940 18.9063
" />
<path d="M30.3940 18.9063
L30.1083 18.9063
" />
<path d="M30.1083 18.9063
L30.0131 18.8587
" />
<path d="M30.0131 18.8587
L29.9655 18.8111
" />
</g><text x="19.6948" y="50.6686"
textLength="2.2024" font-size="1.3333" lengthAdjust="spacingAndGlyphs"
text-anchor="middle" opacity="0" stroke-opacity="0">C4</text>
<g class="stroked-text"><desc>C4</desc>
<path d="M19.5282 50.5282
L19.4805 50.5758
" />
<path d="M19.4805 50.5758
L19.3377 50.6234
" />
<path d="M19.3377 50.6234
L19.2425 50.6234
" />
<path d="M19.2425 50.6234
L19.0996 50.5758
" />
<path d="M19.0996 50.5758
L19.0044 50.4806
" />
<path d="M19.0044 50.4806
L18.9567 50.3853
" />
<path d="M18.9567 50.3853
L18.9091 50.1948
" />
<path d="M18.9091 50.1948
L18.9091 50.0520
" />
<path d="M18.9091 50.0520
L18.9567 49.8615
" />
<path d="M18.9567 49.8615
L19.0044 49.7663
" />
<path d="M19.0044 49.7663
L19.0996 49.6710
" />
<path d="M19.0996 49.6710
L19.2425 49.6234
" />
<path d="M19.2425 49.6234
L19.3377 49.6234
" />
<path d="M19.3377 49.6234
L19.4805 49.6710
" />
<path d="M19.4805 49.6710
L19.5282 49.7187
" />
<path d="M20.3853 49.9567
L20.3853 50.6234
" />
<path d="M20.1472 49.5758
L19.9091 50.2901
" />
<path d="M19.9091 50.2901
L20.5282 50.2901
" />
</g><text x="37.6912" y="42.6376"
textLength="2.0119" font-size="1.3333" lengthAdjust="spacingAndGlyphs"
text-anchor="middle" opacity="0" stroke-opacity="0">L1</text>
<g class="stroked-text"><desc>L1</desc>
<path d="M37.5245 42.5924
L37.0483 42.5924
" />
<path d="M37.0483 42.5924
L37.0483 41.5924
" />
<path d="M38.3817 42.5924
L37.8103 42.5924
" />
<path d="M38.0960 42.5924
L38.0960 41.5924
" />
<path d="M38.0960 41.5924
L38.0007 41.7353
" />
<path d="M38.0007 41.7353
L37.9055 41.8305
" />
<path d="M37.9055 41.8305
L37.8103 41.8781
" />
</g><g transform="rotate(-90.000000 38.3170 6.5730)">
<text x="38.3170" y="7.0730"
textLength="3.1548" font-size="1.3333" lengthAdjust="spacingAndGlyphs"
text-anchor="middle" opacity="0" stroke-opacity="0">C19</text>
</g>
<g class="stroked-text"><desc>C19</desc>
<path d="M38.6766 7.2159
L38.7242 7.2635
" />
<path d="M38.7242 7.2635
L38.7718 7.4063
" />
<path d="M38.7718 7.4063
L38.7718 7.5016
" />
<path d="M38.7718 7.5016
L38.7242 7.6444
" />
<path d="M38.7242 7.6444
L38.6290 7.7397
" />
<path d="M38.6290 7.7397
L38.5337 7.7873
" />
<path d="M38.5337 7.7873
L38.3432 7.8349
" />
<path d="M38.3432 7.8349
L38.2004 7.8349
" />
<path d="M38.2004 7.8349
L38.0099 7.7873
" />
<path d="M38.0099 7.7873
L37.9147 7.7397
" />
<path d="M37.9147 7.7397
L37.8194 7.6444
" />
<path d="M37.8194 7.6444
L37.7718 7.5016
" />
<path d="M37.7718 7.5016
L37.7718 7.4063
" />
<path d="M37.7718 7.4063
L37.8194 7.2635
" />
<path d="M37.8194 7.2635
L37.8671 7.2159
" />
<path d="M38.7718 6.2635
L38.7718 6.8349
" />
<path d="M38.7718 6.5492
L37.7718 6.5492
" />
<path d="M37.7718 6.5492
L37.9147 6.6444
" />
<path d="M37.9147 6.6444
L38.0099 6.7397
" />
<path d="M38.0099 6.7397
L38.0575 6.8349
" />
<path d="M38.7718 5.7873
L38.7718 5.5968
" />
<path d="M38.7718 5.5968
L38.7242 5.5016
" />
<path d="M38.7242 5.5016
L38.6766 5.4540
" />
<path d="M38.6766 5.4540
L38.5337 5.3587
" />
<path d="M38.5337 5.3587
L38.3432 5.3111
" />
<path d="M38.3432 5.3111
L37.9623 5.3111
" />
<path d="M37.9623 5.3111
L37.8671 5.3587
" />
<path d="M37.8671 5.3587
L37.8194 5.4063
" />
<path d="M37.8194 5.4063
L37.7718 5.5016
" />
<path d="M37.7718 5.5016
L37.7718 5.6920
" />
<path d="M37.7718 5.6920
L37.8194 5.7873
" />
<path d="M37.8194 5.7873
L37.8671 5.8349
" />
<path d="M37.8671 5.8349
L37.9623 5.8825
" />
<path d="M37.9623 5.8825
L38.2004 5.8825
" />
<path d="M38.2004 5.8825
L38.2956 5.8349
" />
<path d="M38.2956 5.8349
L38.3432 5.7873
" />
<path d="M38.3432 5.7873
L38.3909 5.6920
" />
<path d="M38.3909 5.6920
L38.3909 5.5016
" />
<path d="M38.3909 5.5016
L38.3432 5.4063
" />
<path d="M38.3432 5.4063
L38.2956 5.3587
" />
<path d="M38.2956 5.3587
L38.2004 5.3111
" />
</g></g>
<g style="fill:none; 
stroke:#000000; stroke-width:0.1000; stroke-opacity:1; 
stroke-linecap:round; stroke-linejoin:round;">
<text x="32.0000" y="66.1150"
textLength="3.4810" font-size="1.3333" lengthAdjust="spacingAndGlyphs"
text-anchor="middle" opacity="0" stroke-opacity="0">FLT1</text>
<g class="stroked-text"><desc>FLT1</desc>
<path d="M30.8810 65.5486
L30.5476 65.5486
" />
<path d="M30.5476 66.0724
L30.5476 65.0724
" />
<path d="M30.5476 65.0724
L31.0238 65.0724
" />
<path d="M31.8810 66.0724
L31.4048 66.0724
" />
<path d="M31.4048 66.0724
L31.4048 65.0724
" />
<path d="M32.0714 65.0724
L32.6429 65.0724
" />
<path d="M32.3571 66.0724
L32.3571 65.0724
" />
<path d="M33.5000 66.0724
L32.9286 66.0724
" />
<path d="M33.2143 66.0724
L33.2143 65.0724
" />
<path d="M33.2143 65.0724
L33.1190 65.2153
" />
<path d="M33.1190 65.2153
L33.0238 65.3105
" />
<path d="M33.0238 65.3105
L32.9286 65.3581
" />
</g></g>
<g style="fill:none; 
stroke:#000000; stroke-width:0.1500; stroke-opacity:1; 
stroke-linecap:round; stroke-linejoin:round;">
<text x="17.0990" y="40.6490"
textLength="3.1548" font-size="1.3333" lengthAdjust="spacingAndGlyphs"
text-anchor="middle" opacity="0" stroke-opacity="0">C17</text>
<g class="stroked-text"><desc>C17</desc>
<path d="M16.4561 40.5086
L16.4085 40.5562
" />
<path d="M16.4085 40.5562
L16.2657 40.6038
" />
<path d="M16.2657 40.6038
L16.1704 40.6038
" />
<path d="M16.1704 40.6038
L16.0276 40.5562
" />
<path d="M16.0276 40.5562
L15.9323 40.4610
" />
<path d="M15.9323 40.4610
L15.8847 40.3657
" />
<path d="M15.8847 40.3657
L15.8371 40.1752
" />
<path d="M15.8371 40.1752
L15.8371 40.0324
" />
<path d="M15.8371 40.0324
L15.8847 39.8419
" />
<path d="M15.8847 39.8419
L15.9323 39.7467
" />
<path d="M15.9323 39.7467
L16.0276 39.6514
" />
<path d="M16.0276 39.6514
L16.1704 39.6038
" />
<path d="M16.1704 39.6038
L16.2657 39.6038
" />
<path d="M16.2657 39.6038
L16.4085 39.6514
" />
<path d="M16.4085 39.6514
L16.4561 39.6991
" />
<path d="M17.4085 40.6038
L16.8371 40.6038
" />
<path d="M17.1228 40.6038
L17.1228 39.6038
" />
<path d="M17.1228 39.6038
L17.0276 39.7467
" />
<path d="M17.0276 39.7467
L16.9323 39.8419
" />
<path d="M16.9323 39.8419
L16.8371 39.8895
" />
<path d="M17.7419 39.6038
L18.4085 39.6038
" />
<path d="M18.4085 39.6038
L17.9800 40.6038
" />
</g><text x="20.5000" y="38.0400"
textLength="2.2024" font-size="1.3333" lengthAdjust="spacingAndGlyphs"
text-anchor="middle" opacity="0" stroke-opacity="0">C5</text>
<g class="stroked-text"><desc>C5</desc>
<path d="M20.3333 37.8996
L20.2857 37.9472
" />
<path d="M20.2857 37.9472
L20.1429 37.9948
" />
<path d="M20.1429 37.9948
L20.0476 37.9948
" />
<path d="M20.0476 37.9948
L19.9048 37.9472
" />
<path d="M19.9048 37.9472
L19.8095 37.8520
" />
<path d="M19.8095 37.8520
L19.7619 37.7567
" />
<path d="M19.7619 37.7567
L19.7143 37.5662
" />
<path d="M19.7143 37.5662
L19.7143 37.4234
" />
<path d="M19.7143 37.4234
L19.7619 37.2329
" />
<path d="M19.7619 37.2329
L19.8095 37.1377
" />
<path d="M19.8095 37.1377
L19.9048 37.0424
" />
<path d="M19.9048 37.0424
L20.0476 36.9948
" />
<path d="M20.0476 36.9948
L20.1429 36.9948
" />
<path d="M20.1429 36.9948
L20.2857 37.0424
" />
<path d="M20.2857 37.0424
L20.3333 37.0901
" />
<path d="M21.2381 36.9948
L20.7619 36.9948
" />
<path d="M20.7619 36.9948
L20.7143 37.4710
" />
<path d="M20.7143 37.4710
L20.7619 37.4234
" />
<path d="M20.7619 37.4234
L20.8571 37.3758
" />
<path d="M20.8571 37.3758
L21.0952 37.3758
" />
<path d="M21.0952 37.3758
L21.1905 37.4234
" />
<path d="M21.1905 37.4234
L21.2381 37.4710
" />
<path d="M21.2381 37.4710
L21.2857 37.5662
" />
<path d="M21.2857 37.5662
L21.2857 37.8043
" />
<path d="M21.2857 37.8043
L21.2381 37.8996
" />
<path d="M21.2381 37.8996
L21.1905 37.9472
" />
<path d="M21.1905 37.9472
L21.0952 37.9948
" />
<path d="M21.0952 37.9948
L20.8571 37.9948
" />
<path d="M20.8571 37.9948
L20.7619 37.9472
" />
<path d="M20.7619 37.9472
L20.7143 37.8996
" />
</g><g transform="rotate(-90.000000 38.3170 2.7630)">
<text x="38.3170" y="3.2630"
textLength="2.2024" font-size="1.3333" lengthAdjust="spacingAndGlyphs"
text-anchor="middle" opacity="0" stroke-opacity="0">R4</text>
</g>
<g class="stroked-text"><desc>R4</desc>
<path d="M38.7718 2.9297
L38.2956 3.2630
" />
<path d="M38.7718 3.5011
L37.7718 3.5011
" />
<path d="M37.7718 3.5011
L37.7718 3.1201
" />
<path d="M37.7718 3.1201
L37.8194 3.0249
" />
<path d="M37.8194 3.0249
L37.8671 2.9773
" />
<path d="M37.8671 2.9773
L37.9623 2.9297
" />
<path d="M37.9623 2.9297
L38.1052 2.9297
" />
<path d="M38.1052 2.9297
L38.2004 2.9773
" />
<path d="M38.2004 2.9773
L38.2480 3.0249
" />
<path d="M38.2480 3.0249
L38.2956 3.1201
" />
<path d="M38.2956 3.1201
L38.2956 3.5011
" />
<path d="M38.1052 2.0725
L38.7718 2.0725
" />
<path d="M37.7242 2.3106
L38.4385 2.5487
" />
<path d="M38.4385 2.5487
L38.4385 1.9297
" />
</g><g transform="rotate(-90.000000 31.3561 55.1573)">
<text x="31.3561" y="55.6573"
textLength="3.1548" font-size="1.3333" lengthAdjust="spacingAndGlyphs"
text-anchor="middle" opacity="0" stroke-opacity="0">C10</text>
</g>
<g class="stroked-text"><desc>C10</desc>
<path d="M31.7156 55.8002
L31.7633 55.8478
" />
<path d="M31.7633 55.8478
L31.8109 55.9907
" />
<path d="M31.8109 55.9907
L31.8109 56.0859
" />
<path d="M31.8109 56.0859
L31.7633 56.2287
" />
<path d="M31.7633 56.2287
L31.6680 56.3240
" />
<path d="M31.6680 56.3240
L31.5728 56.3716
" />
<path d="M31.5728 56.3716
L31.3823 56.4192
" />
<path d="M31.3823 56.4192
L31.2395 56.4192
" />
<path d="M31.2395 56.4192
L31.0490 56.3716
" />
<path d="M31.0490 56.3716
L30.9537 56.3240
" />
<path d="M30.9537 56.3240
L30.8585 56.2287
" />
<path d="M30.8585 56.2287
L30.8109 56.0859
" />
<path d="M30.8109 56.0859
L30.8109 55.9907
" />
<path d="M30.8109 55.9907
L30.8585 55.8478
" />
<path d="M30.8585 55.8478
L30.9061 55.8002
" />
<path d="M31.8109 54.8478
L31.8109 55.4192
" />
<path d="M31.8109 55.1335
L30.8109 55.1335
" />
<path d="M30.8109 55.1335
L30.9537 55.2287
" />
<path d="M30.9537 55.2287
L31.0490 55.3240
" />
<path d="M31.0490 55.3240
L31.0966 55.4192
" />
<path d="M30.8109 54.2287
L30.8109 54.1335
" />
<path d="M30.8109 54.1335
L30.8585 54.0383
" />
<path d="M30.8585 54.0383
L30.9061 53.9907
" />
<path d="M30.9061 53.9907
L31.0014 53.9430
" />
<path d="M31.0014 53.9430
L31.1918 53.8954
" />
<path d="M31.1918 53.8954
L31.4299 53.8954
" />
<path d="M31.4299 53.8954
L31.6204 53.9430
" />
<path d="M31.6204 53.9430
L31.7156 53.9907
" />
<path d="M31.7156 53.9907
L31.7633 54.0383
" />
<path d="M31.7633 54.0383
L31.8109 54.1335
" />
<path d="M31.8109 54.1335
L31.8109 54.2287
" />
<path d="M31.8109 54.2287
L31.7633 54.3240
" />
<path d="M31.7633 54.3240
L31.7156 54.3716
" />
<path d="M31.7156 54.3716
L31.6204 54.4192
" />
<path d="M31.6204 54.4192
L31.4299 54.4668
" />
<path d="M31.4299 54.4668
L31.1918 54.4668
" />
<path d="M31.1918 54.4668
L31.0014 54.4192
" />
<path d="M31.0014 54.4192
L30.9061 54.3716
" />
<path d="M30.9061 54.3716
L30.8585 54.3240
" />
<path d="M30.8585 54.3240
L30.8109 54.2287
" />
</g><text x="5.0250" y="65.3250"
textLength="2.2500" font-size="1.3333" lengthAdjust="spacingAndGlyphs"
text-anchor="middle" opacity="0" stroke-opacity="0">H5</text>
<g class="stroked-text"><desc>H5</desc>
<path d="M4.2631 65.2798
L4.2631 64.2798
" />
<path d="M4.2631 64.7560
L4.8345 64.7560
" />
<path d="M4.8345 65.2798
L4.8345 64.2798
" />
<path d="M5.7869 64.2798
L5.3107 64.2798
" />
<path d="M5.3107 64.2798
L5.2631 64.7560
" />
<path d="M5.2631 64.7560
L5.3107 64.7084
" />
<path d="M5.3107 64.7084
L5.4060 64.6608
" />
<path d="M5.4060 64.6608
L5.6440 64.6608
" />
<path d="M5.6440 64.6608
L5.7393 64.7084
" />
<path d="M5.7393 64.7084
L5.7869 64.7560
" />
<path d="M5.7869 64.7560
L5.8345 64.8512
" />
<path d="M5.8345 64.8512
L5.8345 65.0893
" />
<path d="M5.8345 65.0893
L5.7869 65.1846
" />
<path d="M5.7869 65.1846
L5.7393 65.2322
" />
<path d="M5.7393 65.2322
L5.6440 65.2798
" />
<path d="M5.6440 65.2798
L5.4060 65.2798
" />
<path d="M5.4060 65.2798
L5.3107 65.2322
" />
<path d="M5.3107 65.2322
L5.2631 65.1846
" />
</g><text x="32.0000" y="61.5400"
textLength="2.0119" font-size="1.3333" lengthAdjust="spacingAndGlyphs"
text-anchor="middle" opacity="0" stroke-opacity="0">L3</text>
<g class="stroked-text"><desc>L3</desc>
<path d="M31.8333 61.4948
L31.3571 61.4948
" />
<path d="M31.3571 61.4948
L31.3571 60.4948
" />
<path d="M32.0714 60.4948
L32.6905 60.4948
" />
<path d="M32.6905 60.4948
L32.3571 60.8758
" />
<path d="M32.3571 60.8758
L32.5000 60.8758
" />
<path d="M32.5000 60.8758
L32.5952 60.9234
" />
<path d="M32.5952 60.9234
L32.6429 60.9710
" />
<path d="M32.6429 60.9710
L32.6905 61.0662
" />
<path d="M32.6905 61.0662
L32.6905 61.3043
" />
<path d="M32.6905 61.3043
L32.6429 61.3996
" />
<path d="M32.6429 61.3996
L32.5952 61.4472
" />
<path d="M32.5952 61.4472
L32.5000 61.4948
" />
<path d="M32.5000 61.4948
L32.2143 61.4948
" />
<path d="M32.2143 61.4948
L32.1190 61.4472
" />
<path d="M32.1190 61.4472
L32.0714 61.3996
" />
</g><text x="26.2500" y="54.7326"
textLength="3.0595" font-size="1.3333" lengthAdjust="spacingAndGlyphs"
text-anchor="middle" opacity="0" stroke-opacity="0">FB1</text>
<g class="stroked-text"><desc>FB1</desc>
<path d="M25.4167 54.1636
L25.0833 54.1636
" />
<path d="M25.0833 54.6874
L25.0833 53.6874
" />
<path d="M25.0833 53.6874
L25.5595 53.6874
" />
<path d="M26.2738 54.1636
L26.4167 54.2112
" />
<path d="M26.4167 54.2112
L26.4643 54.2588
" />
<path d="M26.4643 54.2588
L26.5119 54.3541
" />
<path d="M26.5119 54.3541
L26.5119 54.4969
" />
<path d="M26.5119 54.4969
L26.4643 54.5922
" />
<path d="M26.4643 54.5922
L26.4167 54.6398
" />
<path d="M26.4167 54.6398
L26.3214 54.6874
" />
<path d="M26.3214 54.6874
L25.9405 54.6874
" />
<path d="M25.9405 54.6874
L25.9405 53.6874
" />
<path d="M25.9405 53.6874
L26.2738 53.6874
" />
<path d="M26.2738 53.6874
L26.3690 53.7350
" />
<path d="M26.3690 53.7350
L26.4167 53.7827
" />
<path d="M26.4167 53.7827
L26.4643 53.8779
" />
<path d="M26.4643 53.8779
L26.4643 53.9731
" />
<path d="M26.4643 53.9731
L26.4167 54.0684
" />
<path d="M26.4167 54.0684
L26.3690 54.1160
" />
<path d="M26.3690 54.1160
L26.2738 54.1636
" />
<path d="M26.2738 54.1636
L25.9405 54.1636
" />
<path d="M27.4643 54.6874
L26.8929 54.6874
" />
<path d="M27.1786 54.6874
L27.1786 53.6874
" />
<path d="M27.1786 53.6874
L27.0833 53.8303
" />
<path d="M27.0833 53.8303
L26.9881 53.9255
" />
<path d="M26.9881 53.9255
L26.8929 53.9731
" />
</g><path style="fill:#000000; fill-opacity:1.0000; stroke:none;fill-rule:evenodd;"
d="M 20.3963,61.4726
20.4083,61.4740
20.5975,61.4967
20.7582,61.5520
20.8844,61.6408
20.8924,61.6486
20.9847,61.7409
22.1664,61.7421
22.4529,61.7417
22.6904,61.7410
22.8848,61.7417
23.0417,61.7452
23.1669,61.7533
23.2661,61.7674
23.3452,61.7891
23.4099,61.8202
23.4658,61.8620
23.5189,61.9163
23.5748,61.9846
23.6392,62.0685
23.7181,62.1696
23.7189,62.1707
23.8051,62.2828
23.8800,62.3881
23.9359,62.4750
23.9649,62.5318
23.9654,62.5332
23.9768,62.6503
23.9435,62.7636
23.8735,62.8575
23.7742,62.9166
23.7739,62.9167
23.7248,62.9242
23.6323,62.9308
23.5081,62.9360
23.3636,62.9393
23.2976,62.9399
22.8850,62.9423
22.8812,63.2612
22.8758,63.4261
22.8622,63.5472
22.8371,63.6353
22.7974,63.7009
22.7399,63.7549
22.7335,63.7597
22.6989,63.7937
22.6792,63.8411
22.6706,63.9163
22.6694,64.0132
22.6706,64.2181
22.9571,64.2190
23.2435,64.2200
23.3623,64.0795
23.5477,63.9006
23.7607,63.7651
23.9943,63.6741
24.2411,63.6287
24.4940,63.6299
24.7459,63.6790
24.9896,63.7770
25.0579,63.8149
25.1724,63.8958
25.2888,64.0001
25.3951,64.1149
25.4795,64.2274
25.5302,64.3246
25.5324,64.3310
25.5495,64.4665
25.5149,64.5914
25.4315,64.6967
25.4232,64.7036
25.3817,64.7339
25.3370,64.7549
25.2785,64.7684
25.1957,64.7760
25.0780,64.7794
24.9380,64.7803
24.7967,64.7818
24.6754,64.7853
24.5845,64.7904
24.5341,64.7967
24.5278,64.7992
24.5172,64.8348
24.5099,64.9065
24.5078,64.9631
24.5061,65.1087
24.9180,65.1093
25.0791,65.1104
25.1957,65.1139
25.2780,65.1215
25.3361,65.1346
25.3802,65.1549
25.4206,65.1839
25.4232,65.1860
25.5132,65.2882
25.5507,65.4046
25.5357,65.5342
25.4684,65.6761
25.3644,65.8122
25.1689,65.9944
24.9509,66.1307
24.7171,66.2211
24.4741,66.2655
24.2283,66.2640
23.9865,66.2166
23.7552,66.1231
23.5409,65.9837
23.3675,65.8181
23.2370,65.6697
22.9542,65.6706
22.6713,65.6716
22.6679,66.8396
22.6667,67.1517
22.6646,67.4145
22.6607,67.6331
22.6541,67.8129
22.6440,67.9592
22.6295,68.0774
22.6097,68.1727
22.5838,68.2504
22.5508,68.3160
22.5101,68.3746
22.4606,68.4316
22.4015,68.4923
22.3979,68.4958
22.2960,68.5919
22.2115,68.6557
22.1285,68.6986
22.1028,68.7087
21.8911,68.7598
21.6802,68.7594
21.4782,68.7094
21.2933,68.6113
21.1777,68.5142
21.1177,68.4538
21.0676,68.3993
21.0265,68.3453
20.9933,68.2864
20.9673,68.2172
20.9476,68.1324
20.9332,68.0266
20.9233,67.8944
20.9170,67.7304
20.9133,67.5293
20.9114,67.2857
20.9104,66.9941
20.9101,66.9059
20.9099,66.8255
21.3527,66.8255
21.3527,67.0724
21.3542,67.3049
21.3570,67.5166
21.3610,67.7013
21.3659,67.8527
21.3717,67.9644
21.3782,68.0303
21.3811,68.0426
21.4559,68.1671
21.5704,68.2578
21.6670,68.2965
21.8109,68.3104
21.9481,68.2771
22.0673,68.2033
22.1572,68.0956
22.2020,67.9828
22.2073,67.9330
22.2120,67.8349
22.2163,67.6952
22.2198,67.5203
22.2225,67.3168
22.2242,67.0912
22.2249,66.8499
22.2249,66.7772
22.2239,65.6757
21.7900,65.6842
21.3560,65.6927
21.3527,66.8255
20.9099,66.8255
20.9068,65.6886
20.6978,65.6899
20.4888,65.6913
20.3411,65.8461
20.1358,66.0244
19.9087,66.1551
19.6659,66.2373
19.4133,66.2698
19.1571,66.2513
18.9034,66.1809
18.7962,66.1343
18.6727,66.0616
18.5402,65.9632
18.4154,65.8533
18.3149,65.7457
18.2777,65.6954
18.2185,65.5641
18.2037,65.4292
18.2317,65.3027
18.3007,65.1969
18.3489,65.1563
18.3964,65.1315
18.4610,65.1139
18.5522,65.1022
18.6796,65.0952
18.8407,65.0917
19.2455,65.0866
19.2437,64.9346
19.2418,64.7826
18.8290,64.7791
18.6423,64.7752
18.5020,64.7652
18.4000,64.7467
18.3281,64.7169
18.2781,64.6733
18.2419,64.6132
18.2308,64.5875
18.1990,64.4448
18.2174,64.3297
18.7156,64.3297
19.0758,64.3363
19.2740,64.3445
19.4242,64.3649
19.5330,64.4041
19.6068,64.4686
19.6521,64.5649
19.6755,64.6995
19.6833,64.8789
19.6836,64.9445
19.6784,65.1385
19.6590,65.2858
19.6189,65.3924
19.5518,65.4647
19.4512,65.5087
19.3109,65.5308
19.1243,65.5369
19.0720,65.5367
18.9472,65.5368
18.8438,65.5390
18.7734,65.5428
18.7476,65.5473
18.7558,65.5724
18.8015,65.6135
18.8729,65.6627
18.9582,65.7121
19.0456,65.7536
19.0620,65.7601
19.2709,65.8130
19.4795,65.8148
19.6797,65.7685
19.8634,65.6768
20.0225,65.5426
20.1392,65.3854
20.2176,65.2509
20.9085,65.2452
21.8604,65.2373
23.5032,65.2238
23.5963,65.3809
23.7281,65.5541
23.8894,65.6862
24.0724,65.7756
24.2691,65.8206
24.4717,65.8199
24.6720,65.7717
24.8624,65.6744
24.9063,65.6432
25.0165,65.5598
24.6730,65.5530
24.4742,65.5441
24.3232,65.5219
24.2136,65.4799
24.1392,65.4115
24.0937,65.3103
24.0707,65.1698
24.0639,64.9834
24.0640,64.9249
24.0667,64.5635
24.1691,64.4612
24.2714,64.3588
24.6535,64.3542
25.0355,64.3495
24.9169,64.2576
24.7307,64.1450
24.5325,64.0816
24.3303,64.0661
24.1320,64.0971
23.9453,64.1730
23.7781,64.2924
23.6383,64.4539
23.6096,64.4988
23.5106,64.6641
21.8710,64.6639
20.2313,64.6636
20.1650,64.5399
20.0383,64.3567
19.8791,64.2168
19.6911,64.1224
19.4780,64.0756
19.3684,64.0707
19.2067,64.0827
19.0641,64.1204
18.9214,64.1904
18.8064,64.2657
18.7156,64.3297
18.2174,64.3297
18.2212,64.3059
18.2679,64.2110
18.4092,64.0325
18.4141,64.0282
18.4439,64.0026
20.3310,64.0026
20.3408,64.0276
20.3781,64.0786
20.4058,64.1117
20.4531,64.1618
20.4968,64.1914
20.5536,64.2064
20.6401,64.2126
20.6997,64.2141
20.9076,64.2186
20.9076,64.0159
20.9075,64.0055
21.3532,64.0055
21.3539,64.1022
21.3571,64.1748
21.3622,64.2085
21.3625,64.2090
21.3922,64.2126
21.4669,64.2157
21.5772,64.2178
21.7134,64.2190
21.7985,64.2191
22.2237,64.2184
22.2237,64.0156
22.2237,63.8128
21.7892,63.8128
21.3547,63.8128
21.3532,64.0055
20.9075,64.0055
20.9063,63.9138
20.9007,63.8582
20.8886,63.8407
20.8677,63.8531
20.8637,63.8570
20.7691,63.9199
20.6364,63.9641
20.4888,63.9841
20.4051,63.9901
20.3470,63.9977
20.3310,64.0026
18.4439,64.0026
18.5920,63.8753
18.8045,63.7482
19.0089,63.6673
19.1740,63.6343
19.3649,63.6232
19.5589,63.6336
19.7334,63.6650
19.7905,63.6826
19.9395,63.7356
19.9396,63.6112
19.9397,63.5429
20.3843,63.5429
20.4779,63.5364
20.5586,63.5168
20.6225,63.4789
20.6231,63.4783
20.6397,63.4510
20.6526,63.4024
20.6621,63.3266
20.6686,63.2175
20.6709,63.1291
20.6725,63.0693
20.6744,62.8758
20.6746,62.7674
21.1210,62.7674
21.1213,62.9397
21.1225,63.0927
21.1243,63.2180
21.1267,63.3077
21.1296,63.3536
21.1306,63.3578
21.1597,63.3606
21.2358,63.3631
21.3513,63.3651
21.4984,63.3666
21.6696,63.3674
21.7894,63.3675
22.4381,63.3671
22.4355,63.0942
22.4399,62.9034
22.4614,62.7578
22.5062,62.6515
22.5803,62.5784
22.6899,62.5326
22.8411,62.5080
23.0401,62.4985
23.0430,62.4985
23.3961,62.4926
23.3416,62.4179
23.2997,62.3588
23.2649,62.3106
23.2314,62.2723
23.1934,62.2428
23.1450,62.2208
23.0804,62.2054
22.9938,62.1953
22.8794,62.1896
22.7314,62.1870
22.5439,62.1864
22.3112,62.1867
22.1389,62.1869
21.1215,62.1872
21.1210,62.7674
20.6746,62.7674
20.6747,62.7385
20.6741,62.5222
20.6722,62.3540
20.6683,62.2271
20.6619,62.1348
20.6524,62.0704
20.6394,62.0273
20.6222,61.9986
20.6145,61.9901
20.5425,61.9429
20.4710,61.9219
20.3876,61.9139
20.3859,62.7284
20.3843,63.5429
19.9397,63.5429
19.9408,62.6895
19.9413,62.4199
19.9426,62.1996
19.9448,62.0234
19.9483,61.8859
19.9535,61.7816
19.9605,61.7053
19.9697,61.6515
19.9815,61.6150
19.9961,61.5904
20.0051,61.5803
20.0333,61.5597
20.0925,61.5165
20.2040,61.4812
20.3512,61.4714
Z" /> 
<path style="fill:#000000; fill-opacity:1.0000; stroke:none;fill-rule:evenodd;"
d="M 21.9138,13.1222
21.9197,13.1253
21.9281,13.1313
21.9398,13.1410
21.9554,13.1548
21.9757,13.1735
22.0012,13.1977
22.0328,13.2281
22.0709,13.2654
22.1164,13.3102
22.1699,13.3631
22.2321,13.4249
22.3037,13.4961
22.3852,13.5775
22.4775,13.6697
22.5811,13.7733
22.6020,13.7942
22.7129,13.9051
22.8120,14.0044
22.8998,14.0926
22.9770,14.1702
23.0439,14.2378
23.1012,14.2959
23.1493,14.3450
23.1888,14.3857
23.2202,14.4185
23.2440,14.4439
23.2606,14.4624
23.2708,14.4746
23.2748,14.4811
23.2750,14.4818
23.2713,14.4899
23.2597,14.5050
23.2395,14.5281
23.2096,14.5599
23.1694,14.6013
23.1180,14.6534
23.0865,14.6849
23.0320,14.7396
22.9886,14.7835
22.9553,14.8180
22.9308,14.8442
22.9141,14.8635
22.9038,14.8771
22.8989,14.8863
22.8980,14.8908
22.9000,14.8980
22.9067,14.9089
22.9193,14.9246
22.9391,14.9467
22.9673,14.9764
23.0052,15.0150
23.0538,15.0640
23.0692,15.0794
23.2404,15.2506
23.2268,15.2738
23.2172,15.2858
23.1970,15.3080
23.1680,15.3388
23.1318,15.3761
23.0902,15.4183
23.0449,15.4634
23.0418,15.4665
22.9910,15.5169
22.9512,15.5567
22.9212,15.5874
22.8996,15.6104
22.8852,15.6273
22.8765,15.6393
22.8723,15.6481
22.8714,15.6550
22.8714,15.6556
22.8734,15.6633
22.8798,15.6741
22.8917,15.6896
22.9103,15.7110
22.9371,15.7399
22.9731,15.7776
23.0196,15.8255
23.0395,15.8458
23.0921,15.8998
23.1334,15.9430
23.1644,15.9763
23.1861,16.0010
23.1996,16.0182
23.2059,16.0290
23.2066,16.0324
23.2037,16.0401
23.1944,16.0535
23.1776,16.0735
23.1523,16.1014
23.1175,16.1381
23.0724,16.1850
23.0242,16.2342
22.9682,16.2916
22.9237,16.3379
22.8900,16.3739
22.8662,16.4006
22.8514,16.4188
22.8449,16.4295
22.8445,16.4322
22.8511,16.4413
22.8684,16.4608
22.8948,16.4891
22.9287,16.5245
22.9686,16.5654
23.0128,16.6100
23.0192,16.6165
23.0727,16.6703
23.1147,16.7132
23.1462,16.7463
23.1683,16.7707
23.1819,16.7875
23.1880,16.7978
23.1885,16.8013
23.1820,16.8104
23.1648,16.8301
23.1385,16.8589
23.1046,16.8950
23.0646,16.9369
23.0200,16.9830
23.0035,16.9999
22.9510,17.0536
22.9095,17.0965
22.8777,17.1299
22.8545,17.1552
22.8386,17.1738
22.8288,17.1871
22.8240,17.1964
22.8228,17.2031
22.8228,17.2038
22.8261,17.2120
22.8356,17.2256
22.8523,17.2456
22.8773,17.2733
22.9116,17.3097
22.9563,17.3560
23.0051,17.4060
23.1857,17.5904
23.1762,17.6115
23.1678,17.6230
23.1487,17.6449
23.1207,17.6752
23.0855,17.7123
23.0447,17.7543
23.0000,17.7994
22.9969,17.8025
22.9464,17.8531
22.9070,17.8931
22.8772,17.9239
22.8559,17.9469
22.8417,17.9637
22.8333,17.9756
22.8295,17.9841
22.8289,17.9907
22.8320,17.9989
22.8409,18.0121
22.8566,18.0314
22.8803,18.0581
22.9129,18.0933
22.9557,18.1382
23.0095,18.1942
23.0113,18.1960
23.1919,18.3828
23.0015,18.5794
22.9450,18.6380
22.8976,18.6882
22.8598,18.7291
22.8323,18.7600
22.8158,18.7802
22.8110,18.7886
22.8171,18.7986
22.8351,18.8201
22.8644,18.8524
22.9045,18.8949
22.9548,18.9472
23.0045,18.9980
23.1981,19.1947
22.9180,19.4780
22.8519,19.5447
22.7968,19.6002
22.7517,19.6453
22.7156,19.6810
22.6872,19.7085
22.6657,19.7286
22.6499,19.7424
22.6387,19.7508
22.6312,19.7550
22.6262,19.7558
22.6244,19.7553
22.6151,19.7478
22.5952,19.7297
22.5665,19.7025
22.5306,19.6677
22.4892,19.6271
22.4439,19.5821
22.4317,19.5700
22.3803,19.5186
22.3396,19.4781
22.3081,19.4473
22.2845,19.4249
22.2672,19.4097
22.2547,19.4003
22.2456,19.3954
22.2385,19.3939
22.2318,19.3944
22.2294,19.3948
22.2213,19.3975
22.2108,19.4037
22.1964,19.4147
22.1769,19.4318
22.1509,19.4562
22.1169,19.4891
22.0737,19.5317
22.0198,19.5855
22.0166,19.5886
21.9585,19.6464
21.9115,19.6926
21.8746,19.7279
21.8470,19.7532
21.8277,19.7694
21.8159,19.7773
21.8122,19.7783
21.8040,19.7746
21.7887,19.7629
21.7654,19.7424
21.7333,19.7122
21.6914,19.6715
21.6388,19.6195
21.6153,19.5960
21.5587,19.5399
21.5102,19.4927
21.4706,19.4551
21.4408,19.4280
21.4214,19.4122
21.4148,19.4082
21.4090,19.4071
21.4023,19.4084
21.3934,19.4132
21.3807,19.4229
21.3629,19.4388
21.3383,19.4620
21.3057,19.4940
21.2635,19.5360
21.2233,19.5761
21.1718,19.6275
21.1309,19.6678
21.0992,19.6984
21.0753,19.7205
21.0579,19.7353
21.0454,19.7443
21.0364,19.7485
21.0308,19.7494
21.0239,19.7480
21.0145,19.7431
21.0014,19.7333
20.9831,19.7175
20.9582,19.6943
20.9254,19.6625
20.8832,19.6208
20.8323,19.5701
20.7809,19.5187
20.7401,19.4782
20.7087,19.4474
20.6850,19.4250
20.6677,19.4097
20.6553,19.4003
20.6462,19.3954
20.6390,19.3939
20.6323,19.3944
20.6299,19.3948
20.6218,19.3975
20.6112,19.4038
20.5968,19.4148
20.5772,19.4320
20.5510,19.4565
20.5169,19.4896
20.4734,19.5325
20.4193,19.5864
20.3616,19.6437
20.3130,19.6912
20.2741,19.7282
20.2455,19.7542
20.2277,19.7687
20.2219,19.7716
20.2133,19.7651
20.1944,19.7479
20.1668,19.7216
20.1322,19.6880
20.0924,19.6486
20.0521,19.6083
20.0021,19.5581
19.9625,19.5190
19.9318,19.4895
19.9084,19.4681
19.8906,19.4534
19.8769,19.4440
19.8657,19.4385
19.8628,19.4374
19.8334,19.4276
19.6643,19.5965
19.6194,19.6411
19.5777,19.6821
19.5411,19.7176
19.5113,19.7460
19.4900,19.7656
19.4791,19.7747
19.4788,19.7749
19.4687,19.7793
19.4579,19.7802
19.4450,19.7765
19.4286,19.7669
19.4073,19.7505
19.3797,19.7261
19.3443,19.6926
19.2998,19.6490
19.2447,19.5941
19.2425,19.5920
19.0665,19.4159
19.0491,19.4260
19.0386,19.4345
19.0177,19.4537
18.9881,19.4818
18.9516,19.5171
18.9099,19.5579
18.8648,19.6027
18.8600,19.6075
18.8095,19.6579
18.7695,19.6974
18.7387,19.7272
18.7156,19.7487
18.6987,19.7633
18.6865,19.7721
18.6774,19.7765
18.6701,19.7779
18.6672,19.7778
18.6599,19.7764
18.6507,19.7718
18.6383,19.7629
18.6212,19.7484
18.5980,19.7269
18.5672,19.6973
18.5275,19.6582
18.4775,19.6083
18.4646,19.5954
18.4098,19.5409
18.3659,19.4978
18.3318,19.4651
18.3065,19.4419
18.2889,19.4271
18.2779,19.4198
18.2728,19.4189
18.2642,19.4258
18.2447,19.4433
18.2159,19.4697
18.1794,19.5037
18.1367,19.5439
18.0894,19.5886
18.0623,19.6144
17.8624,19.8052
17.3881,19.3332
17.2046,19.1505
17.1003,19.0468
17.0077,18.9545
16.9259,18.8730
16.8544,18.8016
16.7925,18.7396
16.7394,18.6863
16.6946,18.6410
16.6573,18.6031
16.6268,18.5717
16.6026,18.5464
16.5839,18.5262
16.5700,18.5106
16.5603,18.4989
16.5540,18.4904
16.5506,18.4843
16.5494,18.4800
16.5494,18.4778
16.5536,18.4689
16.5650,18.4539
16.5844,18.4316
16.6129,18.4011
16.6515,18.3613
16.7009,18.3112
16.7363,18.2757
16.7887,18.2232
16.8302,18.1813
16.8619,18.1488
16.8852,18.1241
16.9013,18.1059
16.9114,18.0927
16.9170,18.0830
16.9191,18.0755
16.9193,18.0704
16.9178,18.0628
16.9131,18.0533
16.9038,18.0405
16.8887,18.0228
16.8663,17.9988
16.8355,17.9669
16.7948,17.9258
16.7505,17.8813
16.7027,17.8333
17.4290,17.8333
17.7921,18.1997
18.1553,18.5660
18.3844,18.3370
18.6134,18.1080
18.2471,17.7448
17.8807,17.3816
17.6548,17.6075
17.4290,17.8333
16.7027,17.8333
16.6987,17.8293
16.6581,17.7880
16.6275,17.7559
16.6055,17.7318
16.5911,17.7142
16.5828,17.7018
16.5795,17.6932
16.5795,17.6931
16.5792,17.6868
16.5811,17.6796
16.5863,17.6701
16.5962,17.6569
16.6118,17.6386
16.6344,17.6139
16.6653,17.5813
16.7055,17.5393
16.7564,17.4867
16.7676,17.4752
16.9589,17.2778
16.7895,17.1053
16.7452,17.0599
16.7049,17.0181
16.6701,16.9815
16.6425,16.9518
16.6236,16.9308
16.6151,16.9202
16.6149,16.9197
16.6036,16.9027
16.5977,16.8972
16.5963,16.8952
16.5965,16.8920
16.5989,16.8868
16.6044,16.8790
16.6135,16.8679
16.6270,16.8528
16.6454,16.8329
16.6695,16.8076
16.6999,16.7761
16.7374,16.7379
16.7825,16.6922
16.8360,16.6382
16.8986,16.5754
16.9708,16.5029
17.0534,16.4202
17.1471,16.3264
17.2234,16.2502
17.3257,16.1479
17.4165,16.0571
17.4966,15.9772
17.5665,15.9075
17.6271,15.8473
17.6789,15.7959
17.7228,15.7527
17.7594,15.7169
17.7895,15.6879
17.8136,15.6651
17.8326,15.6476
17.8472,15.6349
17.8580,15.6262
17.8657,15.6210
17.8710,15.6184
17.8747,15.6179
17.8766,15.6183
17.8866,15.6257
17.9071,15.6437
17.9364,15.6706
17.9727,15.7049
18.0143,15.7449
18.0595,15.7889
18.0644,15.7937
18.1098,15.8382
18.1519,15.8787
18.1887,15.9137
18.2187,15.9416
18.2401,15.9607
18.2512,15.9695
18.2517,15.9697
18.2567,15.9708
18.2632,15.9690
18.2726,15.9633
18.2862,15.9524
18.3054,15.9351
18.3316,15.9102
18.3660,15.8764
18.4102,15.8325
18.4545,15.7882
18.5079,15.7349
18.5506,15.6927
18.5840,15.6601
18.6096,15.6360
18.6286,15.6192
18.6427,15.6082
18.6531,15.6019
18.6613,15.5990
18.6659,15.5983
18.6730,15.5981
18.6804,15.5998
18.6896,15.6045
18.7021,15.6136
18.7193,15.6283
18.7426,15.6498
18.7736,15.6795
18.8137,15.7185
18.8644,15.7682
18.8751,15.7787
18.9220,15.8244
18.9653,15.8660
19.0032,15.9018
19.0343,15.9305
19.0569,15.9505
19.0694,15.9604
19.0712,15.9612
19.0806,15.9553
19.1000,15.9389
19.1275,15.9140
19.1611,15.8825
19.1988,15.8462
19.2388,15.8073
19.2789,15.7675
19.3173,15.7288
19.3520,15.6932
19.3810,15.6627
19.4023,15.6390
19.4141,15.6242
19.4154,15.6219
19.4255,15.5993
19.2434,15.4171
19.1894,15.3629
19.1466,15.3194
19.1138,15.2854
19.0898,15.2594
19.0734,15.2403
19.0635,15.2267
19.0588,15.2172
19.0581,15.2145
19.0578,15.2081
19.0596,15.2008
19.0650,15.1913
19.0750,15.1780
19.0910,15.1596
19.1142,15.1347
19.1458,15.1017
19.1872,15.0592
19.2368,15.0085
19.2916,14.9524
19.3349,14.9074
19.3677,14.8725
19.3908,14.8468
19.4051,14.8293
19.4115,14.8190
19.4116,14.8154
19.4038,14.8074
19.3855,14.7889
19.3584,14.7617
19.3244,14.7275
19.2850,14.6880
19.2506,14.6535
19.2070,14.6093
19.1687,14.5698
19.1374,14.5365
19.1145,14.5111
19.1014,14.4950
19.0988,14.4902
19.0945,14.4790
19.0812,14.4617
19.0739,14.4539
19.0467,14.4268
19.6878,13.7858
19.7751,13.6984
19.8591,13.6146
19.9387,13.5351
20.0133,13.4606
20.0821,13.3921
20.1441,13.3303
20.1987,13.2760
20.2451,13.2300
20.2823,13.1932
20.3097,13.1662
20.3264,13.1499
20.3316,13.1450
20.3383,13.1508
20.3558,13.1672
20.3827,13.1927
20.4175,13.2259
20.4586,13.2653
20.5045,13.3095
20.5270,13.3312
20.7195,13.5172
20.9063,13.3365
20.9625,13.2823
21.0078,13.2393
21.0433,13.2063
21.0702,13.1824
21.0897,13.1665
21.1030,13.1574
21.1114,13.1541
21.1115,13.1541
21.1182,13.1547
21.1268,13.1586
21.1389,13.1671
21.1558,13.1815
21.1790,13.2030
21.2101,13.2331
21.2505,13.2730
21.2967,13.3191
21.3429,13.3649
21.3856,13.4063
21.4229,13.4417
21.4531,13.4695
21.4746,13.4881
21.4851,13.4956
21.5067,13.5053
21.6987,13.3133
21.7532,13.2589
21.7969,13.2157
21.8312,13.1824
21.8574,13.1577
21.8768,13.1405
21.8909,13.1295
21.9009,13.1235
21.9082,13.1213
21.9099,13.1212
Z" /> 
<path style="fill:#000000; fill-opacity:1.0000; stroke:none;fill-rule:evenodd;"
d="M 39.0826,13.1810
39.2181,13.3164
38.4878,14.0466
37.7576,14.7768
38.0236,15.0428
38.2896,15.3087
38.7538,14.8445
39.2181,14.3803
39.3486,14.5108
39.4792,14.6414
39.6146,14.5060
39.7500,14.3706
39.8854,14.5060
40.0208,14.6414
40.1514,14.5108
40.2819,14.3803
40.4802,14.5785
40.6785,14.7768
40.9496,14.5057
41.2207,14.2346
41.3510,14.3703
41.4812,14.5060
41.2154,14.7770
40.9496,15.0479
41.3458,15.4442
41.7421,15.8404
42.0130,15.5746
42.2840,15.3087
42.4197,15.4390
42.5554,15.5693
42.2843,15.8404
42.0132,16.1115
42.2115,16.3098
42.4097,16.5081
42.2792,16.6386
42.1486,16.7692
42.2840,16.9046
42.4194,17.0400
42.2840,17.1754
42.1486,17.3108
42.2792,17.4414
42.4097,17.5719
41.9455,18.0362
41.4812,18.5004
41.7472,18.7664
42.0132,19.0324
42.7434,18.3022
43.4736,17.5719
43.6090,17.7074
43.7444,17.8428
43.0142,18.5730
42.2840,19.3032
42.1537,19.1729
42.0234,19.0426
41.8877,19.1729
41.7521,19.3032
41.4811,19.0374
41.2101,18.7716
40.7462,19.2355
40.2823,19.6994
40.0161,19.4384
39.7500,19.1775
39.4162,19.5062
39.0824,19.8349
38.7490,19.5015
38.4153,19.1678
38.7490,18.8341
39.0826,18.5004
38.6861,18.1039
38.2896,17.7074
39.6243,17.7074
39.8903,17.9734
40.1564,18.2395
40.6834,17.7074
41.2104,17.1754
40.9495,16.9093
40.6885,16.6431
40.1564,17.1752
39.6243,17.7074
38.2896,17.7074
37.9559,18.0410
37.6222,18.3747
37.2885,18.0410
36.9551,17.7076
37.2838,17.3738
37.6125,17.0400
37.3516,16.7739
37.2140,16.6336
38.5505,16.6336
38.8166,16.8997
39.0826,17.1657
39.6148,16.6336
40.1469,16.1015
39.8807,15.8405
39.6146,15.5796
39.0826,16.1066
38.5505,16.6336
37.2140,16.6336
37.0906,16.5077
37.5545,16.0438
37.7576,15.8407
38.0184,15.5799
37.7526,15.3089
37.4868,15.0379
37.6171,14.9023
37.7474,14.7666
37.6171,14.6363
37.4868,14.5060
38.2170,13.7758
38.9472,13.0456
Z" /> 
<path style="fill:#000000; fill-opacity:1.0000; stroke:none;fill-rule:evenodd;"
d="M 39.3485,20.1010
39.6146,20.3671
39.3486,20.6331
39.0826,20.8990
38.8167,20.6331
38.5507,20.3671
38.8167,20.1011
39.0826,19.8351
Z" /> 
<path style="fill:#000000; fill-opacity:1.0000; stroke:none;fill-rule:evenodd;"
d="M 36.6890,17.4415
36.9549,17.7074
36.6889,17.9733
36.4229,18.2393
36.1569,17.9733
35.8910,17.7074
36.1569,17.4414
36.4229,17.1754
Z" /> 
</g>
<g style="fill:none; 
stroke:#000000; stroke-width:0.1200; stroke-opacity:1; 
stroke-linecap:round; stroke-linejoin:round;">
<path d="M26.2475 50.4023
L26.2475 49.9277
" />
<path d="M25.2025 50.4023
L25.2025 49.9277
" />
<path d="M49.0698 12.0097
L48.0303 10.9702
" />
<path d="M48.0303 10.9702
L46.4146 12.5860
" />
<path d="M47.4540 13.6254
L49.0698 12.0097
" />
<path d="M13.6104 12.5860
L11.9947 10.9702
" />
<path d="M10.9552 12.0097
L12.5710 13.6254
" />
<path d="M11.9947 10.9702
L10.9552 12.0097
" />
<path d="M32.2850 36.1406
L32.2850 35.8594
" />
<path d="M31.2650 36.1406
L31.2650 35.8594
" />
<path d="M34.9836 40.4402
L34.9836 40.6558
" />
<path d="M35.7036 40.4402
L35.7036 40.6558
" />
<path d="M19.2850 2.3844
L19.2850 2.6656
" />
<path d="M18.2650 2.3844
L18.2650 2.6656
" />
<path d="M22.7280 51.4360
L22.4468 51.4360
" />
<path d="M22.7280 52.4560
L22.4468 52.4560
" />
<path d="M29.2225 59.3458
L29.4382 59.3458
" />
<path d="M29.2225 60.0658
L29.4382 60.0658
" />
<path d="M30.5025 9.7877
L30.5025 10.2623
" />
<path d="M31.5475 9.7877
L31.5475 10.2623
" />
<path d="M22.9172 34.9150
L23.1328 34.9150
" />
<path d="M22.9172 35.6350
L23.1328 35.6350
" />
<path d="M33.4070 41.3424
L33.6226 41.3424
" />
<path d="M33.4070 40.6224
L33.6226 40.6224
" />
<path d="M24.0150 41.1400
L24.0150 40.9050
" />
<path d="M24.0150 47.8850
L24.0150 47.4100
" />
<path d="M24.4900 40.6650
L24.3150 40.6650
" />
<path d="M24.4900 47.8850
L24.0150 47.8850
" />
<path d="M30.7600 40.6650
L31.2350 40.6650
" />
<path d="M30.7600 47.8850
L31.2350 47.8850
" />
<path d="M31.2350 40.6650
L31.2350 41.1400
" />
<path d="M31.2350 47.8850
L31.2350 47.4100
" />
<path style="fill:#000000; fill-opacity:1.0000; 
stroke:#000000; stroke-width:0.1200; stroke-opacity:1; 
stroke-linecap:round; stroke-linejoin:round;fill-rule:evenodd;"
d="M 24.0150,40.6650
23.7750,40.3350
24.2550,40.3350
Z" /> 
</g>
<g style="fill:none; 
stroke:#000000; stroke-width:0.1200; stroke-opacity:1; 
stroke-linecap:round; stroke-linejoin:round;">
<path d="M26.1328 33.6650
L25.9172 33.6650
" />
<path d="M26.1328 34.3850
L25.9172 34.3850
" />
<path d="M26.1128 34.9150
L25.8972 34.9150
" />
<path d="M26.1128 35.6350
L25.8972 35.6350
" />
<path d="M28.4028 62.6900
L28.1872 62.6900
" />
<path d="M28.4028 63.4100
L28.1872 63.4100
" />
<path d="M27.5025 9.7877
L27.5025 10.2623
" />
<path d="M28.5475 9.7877
L28.5475 10.2623
" />
<path d="M11.5877 44.2475
L12.0623 44.2475
" />
<path d="M11.5877 43.2025
L12.0623 43.2025
" />
<path d="M20.6028 44.5850
L20.3872 44.5850
" />
<path d="M20.6028 43.8650
L20.3872 43.8650
" />
<path d="M36.0178 50.9564
L34.1086 49.0472
" />
<path d="M34.3914 52.5828
L36.0178 50.9564
" />
<path d="M11.5877 45.7025
L12.0623 45.7025
" />
<path d="M11.5877 46.7475
L12.0623 46.7475
" />
<path d="M29.5150 50.8622
L29.5150 51.0778
" />
<path d="M30.2350 50.8622
L30.2350 51.0778
" />
<path d="M43.7750 4.0250
L43.7750 5.5250
" />
<path d="M45.0250 8.0250
L49.5250 8.0250
" />
<path d="M49.5250 1.5250
L45.0250 1.5250
" />
<path d="M50.7750 5.5250
L50.7750 4.0250
" />
<path d="M25.1050 3.6250
L25.1050 5.3250
" />
<path d="M34.4450 3.6250
L34.4450 5.3250
" />
<path d="M28.7550 24.9100
L29.3900 24.9100
" />
<path d="M28.7550 25.5450
L28.7550 24.9100
" />
<path d="M22.9172 33.6650
L23.1328 33.6650
" />
<path d="M22.9172 34.3850
L23.1328 34.3850
" />
<path d="M21.8750 43.3250
L21.8750 41.0250
" />
<path d="M21.8750 41.0250
L19.1750 41.0250
" />
<path d="M39.5025 6.3987
L39.5025 6.8733
" />
<path d="M40.5475 6.3987
L40.5475 6.8733
" />
<path d="M9.3750 49.0250
L9.3750 48.4250
" />
<path d="M9.3750 48.4250
L8.7750 48.7250
" />
<path d="M8.8850 51.3350
L0.4650 51.3350
" />
<path d="M8.8850 50.1150
L8.8850 51.3350
" />
<path d="M8.8850 39.8350
L6.6850 39.8350
" />
<path d="M8.8850 38.6150
L8.8850 39.8350
" />
<path d="M8.7750 48.7250
L9.3750 49.0250
" />
<path d="M6.6850 50.1150
L8.8850 50.1150
" />
<path d="M6.6850 50.1150
L6.6850 51.3350
" />
<path d="M6.6850 47.5550
L6.6850 47.3950
" />
<path d="M6.6850 45.0550
L6.6850 44.8950
" />
<path d="M6.6850 42.5550
L6.6850 42.3950
" />
<path d="M6.6850 39.8350
L6.6850 38.6150
" />
<path d="M5.6850 50.1150
L5.6850 39.8350
" />
<path d="M5.6850 49.0450
L2.2650 49.0450
" />
<path d="M5.6850 48.7250
L5.6850 49.0450
" />
<path d="M5.6850 48.4050
L5.6850 48.7250
" />
<path d="M5.6850 46.5450
L2.2650 46.5450
" />
<path d="M5.6850 46.2250
L5.6850 46.5450
" />
<path d="M5.6850 45.9050
L5.6850 46.2250
" />
<path d="M5.6850 44.0450
L2.2650 44.0450
" />
<path d="M5.6850 43.7250
L5.6850 44.0450
" />
<path d="M5.6850 43.4050
L5.6850 43.7250
" />
<path d="M5.6850 41.5450
L2.2650 41.5450
" />
<path d="M5.6850 41.2250
L5.6850 41.5450
" />
<path d="M5.6850 40.9050
L5.6850 41.2250
" />
<path d="M2.2650 49.0450
L2.1850 48.7250
" />
<path d="M2.2650 48.4050
L5.6850 48.4050
" />
<path d="M2.2650 46.5450
L2.1850 46.2250
" />
<path d="M2.2650 45.9050
L5.6850 45.9050
" />
<path d="M2.2650 44.0450
L2.1850 43.7250
" />
<path d="M2.2650 43.4050
L5.6850 43.4050
" />
<path d="M2.2650 41.5450
L2.1850 41.2250
" />
<path d="M2.2650 40.9050
L5.6850 40.9050
" />
<path d="M2.1850 48.7250
L2.2650 48.4050
" />
<path d="M2.1850 46.2250
L2.2650 45.9050
" />
<path d="M2.1850 43.7250
L2.2650 43.4050
" />
<path d="M2.1850 41.2250
L2.2650 40.9050
" />
<path d="M1.6850 51.3350
L1.6850 50.1150
" />
<path d="M1.6850 50.1150
L6.6850 50.1150
" />
<path d="M1.6850 39.8350
L6.6850 39.8350
" />
<path d="M1.6850 38.6150
L1.6850 39.8350
" />
<path d="M0.4650 51.3350
L0.4650 38.6150
" />
<path d="M0.4650 38.6150
L8.8850 38.6150
" />
<path d="M22.2650 6.6594
L22.2650 6.9406
" />
<path d="M23.2850 6.6594
L23.2850 6.9406
" />
<path d="M34.8174 44.8256
L35.0330 44.8256
" />
<path d="M34.8174 45.5456
L35.0330 45.5456
" />
<path d="M35.3539 43.0886
L35.0283 43.0886
" />
<path d="M35.3539 44.1086
L35.0283 44.1086
" />
<path d="M11.1010 1.1050
L11.1010 2.3650
" />
<path d="M11.1010 7.9250
L11.1010 6.6650
" />
<path d="M14.8610 1.1050
L11.1010 1.1050
" />
<path d="M14.8610 7.9250
L11.1010 7.9250
" />
<path style="fill:#000000; fill-opacity:1.0000; 
stroke:#000000; stroke-width:0.1200; stroke-opacity:1; 
stroke-linecap:round; stroke-linejoin:round;fill-rule:evenodd;"
d="M 16.3810,8.1550
15.9010,8.1550
16.1410,7.8250
Z" /> 
</g>
<g style="fill:none; 
stroke:#000000; stroke-width:0.1200; stroke-opacity:1; 
stroke-linecap:round; stroke-linejoin:round;">
<path d="M22.8220 55.6616
L22.5408 55.6616
" />
<path d="M22.8220 56.6816
L22.5408 56.6816
" />
<path d="M28.2150 15.5250
L28.2150 14.7250
" />
<path d="M28.2150 15.5250
L28.2150 16.3250
" />
<path d="M31.3350 15.5250
L31.3350 14.7250
" />
<path d="M31.3350 15.5250
L31.3350 16.3250
" />
<path style="fill:#000000; fill-opacity:1.0000; 
stroke:#000000; stroke-width:0.1200; stroke-opacity:1; 
stroke-linecap:round; stroke-linejoin:round;fill-rule:evenodd;"
d="M 31.6150,14.4650
31.2850,14.2250
31.6150,13.9850
Z" /> 
</g>
<g style="fill:none; 
stroke:#000000; stroke-width:0.1200; stroke-opacity:1; 
stroke-linecap:round; stroke-linejoin:round;">
<path d="M23.2340 49.9696
L23.0184 49.9696
" />
<path d="M23.2340 50.6896
L23.0184 50.6896
" />
<path d="M36.3770 6.4324
L36.3770 6.7136
" />
<path d="M37.3970 6.4324
L37.3970 6.7136
" />
<path style="fill:none; 
stroke:#000000; stroke-width:0.0500; stroke-opacity:1; 
stroke-linecap:round; stroke-linejoin:round;fill:none"
d="M 29.1750,65.4875
28.3750,65.4875
28.3750,63.8875
29.1750,63.8875
Z" /> 
</g>
<g style="fill:none; 
stroke:#000000; stroke-width:0.1200; stroke-opacity:1; 
stroke-linecap:round; stroke-linejoin:round;">
<path d="M20.5628 40.5850
L20.3472 40.5850
" />
<path d="M20.5628 39.8650
L20.3472 39.8650
" />
<path d="M23.9950 38.3906
L23.9950 38.1094
" />
<path d="M25.0150 38.3906
L25.0150 38.1094
" />
<path d="M36.3645 2.5257
L36.3645 3.0003
" />
<path d="M37.4095 2.5257
L37.4095 3.0003
" />
<path d="M30.1750 66.9550
L29.5350 66.9550
" />
<path d="M30.1250 69.6750
L27.4250 69.6750
" />
<path d="M29.5350 66.9550
L29.5350 66.3250
" />
<path d="M27.3750 66.9550
L28.0150 66.9550
" />
<path d="M30.8900 52.1122
L30.8900 52.3278
" />
<path d="M31.6100 52.1122
L31.6100 52.3278
" />
</g>
<g style="fill:none; 
stroke:#000000; stroke-width:0.0500; stroke-opacity:1; 
stroke-linecap:round; stroke-linejoin:round;">
<path d="M47.5000 32.5400
L47.4995 52.5400
" />
<path d="M45.0000 55.0395 A2.4995 2.4995 0.0 0 0 47.4995 52.5400" />
<path d="M45.0000 55.0395 A2.5005 2.5005 0.0 0 0 42.5000 57.5900" />
<path d="M47.5000 32.5400 A2.5000 2.5000 0.0 0 0 45.0000 30.0400" />
<path d="M42.5000 27.5400 A2.5000 2.5000 0.0 0 0 45.0000 30.0400" />
<path d="M42.5000 57.5900 A5.0002 5.0002 0.0 0 0 47.5000 62.5402" />
<path d="M0.0250 5.0250
L0.0250 17.5250
" />
<path d="M5.0250 72.5750
L55.0250 72.5250
" />
<path d="M0.0250 47.5750 A5.0000 5.0000 0.0 0 0 5.0250 52.5750" />
<path d="M0.0250 42.5750
L0.0250 47.5750
" />
<path d="M17.5000 27.5148 A5.0000 5.0000 0.0 0 0 12.5000 22.5148" />
<path d="M5.0250 37.5750 A5.0000 5.0000 0.0 0 0 0.0250 42.5750" />
<path d="M0.0250 17.5250 A5.0000 5.0000 0.0 0 0 5.0250 22.5250" />
<path d="M47.5000 22.5400
L55.0250 22.5250
" />
<path d="M5.0250 62.5750 A5.0000 5.0000 0.0 0 0 5.0250 72.5750" />
<path d="M47.5000 62.5402
L55.0250 62.5250
" />
<path d="M60.0250 5.0250
L60.0250 17.5250
" />
<path d="M20.0250 57.5750 A5.0000 5.0000 0.0 0 0 15.0250 52.5750" />
<path d="M5.0250 52.5750
L15.0250 52.5750
" />
<path d="M15.0250 62.5750 A5.0000 5.0000 0.0 0 0 20.0250 57.5750" />
<path d="M15.0250 62.5750
L5.0250 62.5750
" />
<path d="M47.5000 22.5400 A5.0000 5.0000 0.0 0 0 42.5000 27.5400" />
<path d="M5.0250 22.5250
L12.5000 22.5148
" />
<path d="M12.5000 37.5650 A5.0002 5.0002 0.0 0 0 17.5000 32.5148" />
<path d="M5.0250 0.0250 A5.0000 5.0000 0.0 0 0 0.0250 5.0250" />
<path d="M60.0250 5.0250 A5.0000 5.0000 0.0 0 0 55.0250 0.0250" />
<path d="M5.0250 0.0250
L55.0250 0.0250
" />
<path d="M55.0250 72.5250 A5.0000 5.0000 0.0 0 0 55.0250 62.5250" />
<path d="M5.0250 37.5750
L12.5000 37.5650
" />
<path d="M17.5000 27.5148
L17.5000 32.5148
" />
<path d="M55.0250 22.5250 A5.0000 5.0000 0.0 0 0 60.0250 17.5250" />
</g> 
</svg>
